<mxfile host="app.diagrams.net" agent="Mozilla/5.0 (Windows NT 10.0; Win64; x64) AppleWebKit/537.36 (KHTML, like Gecko) Chrome/132.0.0.0 Safari/537.36" version="26.0.11">
  <diagram name="Página-1" id="v9j5rYEVNlsjebWW-kcD">
    <mxGraphModel dx="2220" dy="1124" grid="0" gridSize="10" guides="1" tooltips="1" connect="1" arrows="1" fold="1" page="0" pageScale="1" pageWidth="827" pageHeight="1169" math="0" shadow="0">
      <root>
        <mxCell id="0" />
        <mxCell id="1" parent="0" />
        <mxCell id="p8O_HCt2gGSoECRkVjmH-9" value="Animal" style="swimlane;fontStyle=1;align=center;verticalAlign=top;childLayout=stackLayout;horizontal=1;startSize=26;horizontalStack=0;resizeParent=1;resizeParentMax=0;resizeLast=0;collapsible=1;marginBottom=0;whiteSpace=wrap;html=1;" parent="1" vertex="1">
          <mxGeometry x="36" y="-264" width="160" height="150" as="geometry" />
        </mxCell>
        <mxCell id="p8O_HCt2gGSoECRkVjmH-10" value="&lt;div&gt;+ ID_Animal&lt;/div&gt;+ Nombre&lt;div&gt;+ Fecha_nacimiento&lt;/div&gt;&lt;div&gt;+ Especie&lt;br&gt;&lt;div&gt;&lt;br&gt;&lt;/div&gt;&lt;/div&gt;" style="text;strokeColor=none;fillColor=none;align=left;verticalAlign=top;spacingLeft=4;spacingRight=4;overflow=hidden;rotatable=0;points=[[0,0.5],[1,0.5]];portConstraint=eastwest;whiteSpace=wrap;html=1;" parent="p8O_HCt2gGSoECRkVjmH-9" vertex="1">
          <mxGeometry y="26" width="160" height="84" as="geometry" />
        </mxCell>
        <mxCell id="p8O_HCt2gGSoECRkVjmH-11" value="" style="line;strokeWidth=1;fillColor=none;align=left;verticalAlign=middle;spacingTop=-1;spacingLeft=3;spacingRight=3;rotatable=0;labelPosition=right;points=[];portConstraint=eastwest;strokeColor=inherit;" parent="p8O_HCt2gGSoECRkVjmH-9" vertex="1">
          <mxGeometry y="110" width="160" height="8" as="geometry" />
        </mxCell>
        <mxCell id="p8O_HCt2gGSoECRkVjmH-12" value="+ Imprimir_ficha()" style="text;strokeColor=none;fillColor=none;align=left;verticalAlign=top;spacingLeft=4;spacingRight=4;overflow=hidden;rotatable=0;points=[[0,0.5],[1,0.5]];portConstraint=eastwest;whiteSpace=wrap;html=1;" parent="p8O_HCt2gGSoECRkVjmH-9" vertex="1">
          <mxGeometry y="118" width="160" height="32" as="geometry" />
        </mxCell>
        <mxCell id="p8O_HCt2gGSoECRkVjmH-14" value="Episodio clínico" style="swimlane;fontStyle=1;align=center;verticalAlign=top;childLayout=stackLayout;horizontal=1;startSize=26;horizontalStack=0;resizeParent=1;resizeParentMax=0;resizeLast=0;collapsible=1;marginBottom=0;whiteSpace=wrap;html=1;" parent="1" vertex="1">
          <mxGeometry x="316" y="-264" width="160" height="150" as="geometry" />
        </mxCell>
        <mxCell id="p8O_HCt2gGSoECRkVjmH-15" value="&lt;div&gt;+ ID_Episodio&lt;/div&gt;&lt;div&gt;+ ID_Animal&lt;/div&gt;+ Fecha_incio&lt;div&gt;+ Coste&lt;/div&gt;&lt;div&gt;+ Tratamiento&lt;br&gt;&lt;div&gt;&lt;br&gt;&lt;/div&gt;&lt;/div&gt;" style="text;strokeColor=none;fillColor=none;align=left;verticalAlign=top;spacingLeft=4;spacingRight=4;overflow=hidden;rotatable=0;points=[[0,0.5],[1,0.5]];portConstraint=eastwest;whiteSpace=wrap;html=1;" parent="p8O_HCt2gGSoECRkVjmH-14" vertex="1">
          <mxGeometry y="26" width="160" height="84" as="geometry" />
        </mxCell>
        <mxCell id="p8O_HCt2gGSoECRkVjmH-16" value="" style="line;strokeWidth=1;fillColor=none;align=left;verticalAlign=middle;spacingTop=-1;spacingLeft=3;spacingRight=3;rotatable=0;labelPosition=right;points=[];portConstraint=eastwest;strokeColor=inherit;" parent="p8O_HCt2gGSoECRkVjmH-14" vertex="1">
          <mxGeometry y="110" width="160" height="8" as="geometry" />
        </mxCell>
        <mxCell id="p8O_HCt2gGSoECRkVjmH-17" value="+ Estado()" style="text;strokeColor=none;fillColor=none;align=left;verticalAlign=top;spacingLeft=4;spacingRight=4;overflow=hidden;rotatable=0;points=[[0,0.5],[1,0.5]];portConstraint=eastwest;whiteSpace=wrap;html=1;" parent="p8O_HCt2gGSoECRkVjmH-14" vertex="1">
          <mxGeometry y="118" width="160" height="32" as="geometry" />
        </mxCell>
        <mxCell id="p8O_HCt2gGSoECRkVjmH-18" value="Pertenecer" style="html=1;verticalAlign=bottom;endArrow=block;curved=0;rounded=0;exitX=0;exitY=0.5;exitDx=0;exitDy=0;entryX=1;entryY=0.5;entryDx=0;entryDy=0;" parent="1" source="p8O_HCt2gGSoECRkVjmH-15" target="p8O_HCt2gGSoECRkVjmH-10" edge="1">
          <mxGeometry width="80" relative="1" as="geometry">
            <mxPoint x="246" y="-34" as="sourcePoint" />
            <mxPoint x="326" y="-34" as="targetPoint" />
            <mxPoint as="offset" />
          </mxGeometry>
        </mxCell>
        <mxCell id="p8O_HCt2gGSoECRkVjmH-19" value="1..*" style="text;html=1;align=center;verticalAlign=middle;resizable=0;points=[];autosize=1;strokeColor=none;fillColor=none;" parent="1" vertex="1">
          <mxGeometry x="236" y="-194" width="40" height="30" as="geometry" />
        </mxCell>
        <mxCell id="p8O_HCt2gGSoECRkVjmH-21" value="Proyecto" style="swimlane;fontStyle=1;align=center;verticalAlign=top;childLayout=stackLayout;horizontal=1;startSize=26;horizontalStack=0;resizeParent=1;resizeParentMax=0;resizeLast=0;collapsible=1;marginBottom=0;whiteSpace=wrap;html=1;" parent="1" vertex="1">
          <mxGeometry x="47" y="44" width="160" height="130" as="geometry" />
        </mxCell>
        <mxCell id="p8O_HCt2gGSoECRkVjmH-22" value="&lt;div&gt;+ ID_Proyecto&lt;/div&gt;+ Nombre&lt;div&gt;+ Fecha_entrega&lt;/div&gt;&lt;div&gt;&lt;div&gt;&lt;br&gt;&lt;/div&gt;&lt;/div&gt;" style="text;strokeColor=none;fillColor=none;align=left;verticalAlign=top;spacingLeft=4;spacingRight=4;overflow=hidden;rotatable=0;points=[[0,0.5],[1,0.5]];portConstraint=eastwest;whiteSpace=wrap;html=1;" parent="p8O_HCt2gGSoECRkVjmH-21" vertex="1">
          <mxGeometry y="26" width="160" height="64" as="geometry" />
        </mxCell>
        <mxCell id="p8O_HCt2gGSoECRkVjmH-23" value="" style="line;strokeWidth=1;fillColor=none;align=left;verticalAlign=middle;spacingTop=-1;spacingLeft=3;spacingRight=3;rotatable=0;labelPosition=right;points=[];portConstraint=eastwest;strokeColor=inherit;" parent="p8O_HCt2gGSoECRkVjmH-21" vertex="1">
          <mxGeometry y="90" width="160" height="8" as="geometry" />
        </mxCell>
        <mxCell id="p8O_HCt2gGSoECRkVjmH-24" value="+ Asignar_jefe()" style="text;strokeColor=none;fillColor=none;align=left;verticalAlign=top;spacingLeft=4;spacingRight=4;overflow=hidden;rotatable=0;points=[[0,0.5],[1,0.5]];portConstraint=eastwest;whiteSpace=wrap;html=1;" parent="p8O_HCt2gGSoECRkVjmH-21" vertex="1">
          <mxGeometry y="98" width="160" height="32" as="geometry" />
        </mxCell>
        <mxCell id="p8O_HCt2gGSoECRkVjmH-25" value="Jefe" style="swimlane;fontStyle=1;align=center;verticalAlign=top;childLayout=stackLayout;horizontal=1;startSize=26;horizontalStack=0;resizeParent=1;resizeParentMax=0;resizeLast=0;collapsible=1;marginBottom=0;whiteSpace=wrap;html=1;" parent="1" vertex="1">
          <mxGeometry x="327" y="39" width="160" height="140" as="geometry" />
        </mxCell>
        <mxCell id="p8O_HCt2gGSoECRkVjmH-26" value="&lt;div&gt;+ Nombre_Apellidos&lt;/div&gt;&lt;div&gt;+ ID_Proyecto&lt;/div&gt;&lt;div&gt;+ Direccion&lt;/div&gt;&lt;div&gt;+ Telefono&lt;/div&gt;&lt;div&gt;&lt;div&gt;&lt;br&gt;&lt;/div&gt;&lt;/div&gt;" style="text;strokeColor=none;fillColor=none;align=left;verticalAlign=top;spacingLeft=4;spacingRight=4;overflow=hidden;rotatable=0;points=[[0,0.5],[1,0.5]];portConstraint=eastwest;whiteSpace=wrap;html=1;" parent="p8O_HCt2gGSoECRkVjmH-25" vertex="1">
          <mxGeometry y="26" width="160" height="74" as="geometry" />
        </mxCell>
        <mxCell id="p8O_HCt2gGSoECRkVjmH-27" value="" style="line;strokeWidth=1;fillColor=none;align=left;verticalAlign=middle;spacingTop=-1;spacingLeft=3;spacingRight=3;rotatable=0;labelPosition=right;points=[];portConstraint=eastwest;strokeColor=inherit;" parent="p8O_HCt2gGSoECRkVjmH-25" vertex="1">
          <mxGeometry y="100" width="160" height="8" as="geometry" />
        </mxCell>
        <mxCell id="p8O_HCt2gGSoECRkVjmH-28" value="+ Obtener_proyecto()&amp;nbsp;" style="text;strokeColor=none;fillColor=none;align=left;verticalAlign=top;spacingLeft=4;spacingRight=4;overflow=hidden;rotatable=0;points=[[0,0.5],[1,0.5]];portConstraint=eastwest;whiteSpace=wrap;html=1;" parent="p8O_HCt2gGSoECRkVjmH-25" vertex="1">
          <mxGeometry y="108" width="160" height="32" as="geometry" />
        </mxCell>
        <mxCell id="p8O_HCt2gGSoECRkVjmH-29" value="Plano" style="swimlane;fontStyle=1;align=center;verticalAlign=top;childLayout=stackLayout;horizontal=1;startSize=26;horizontalStack=0;resizeParent=1;resizeParentMax=0;resizeLast=0;collapsible=1;marginBottom=0;whiteSpace=wrap;html=1;" parent="1" vertex="1">
          <mxGeometry x="46" y="273" width="160" height="110" as="geometry" />
        </mxCell>
        <mxCell id="p8O_HCt2gGSoECRkVjmH-30" value="&lt;div&gt;+ ID_Plano&lt;/div&gt;+ Fecha_creacion" style="text;strokeColor=none;fillColor=none;align=left;verticalAlign=top;spacingLeft=4;spacingRight=4;overflow=hidden;rotatable=0;points=[[0,0.5],[1,0.5]];portConstraint=eastwest;whiteSpace=wrap;html=1;" parent="p8O_HCt2gGSoECRkVjmH-29" vertex="1">
          <mxGeometry y="26" width="160" height="44" as="geometry" />
        </mxCell>
        <mxCell id="p8O_HCt2gGSoECRkVjmH-31" value="" style="line;strokeWidth=1;fillColor=none;align=left;verticalAlign=middle;spacingTop=-1;spacingLeft=3;spacingRight=3;rotatable=0;labelPosition=right;points=[];portConstraint=eastwest;strokeColor=inherit;" parent="p8O_HCt2gGSoECRkVjmH-29" vertex="1">
          <mxGeometry y="70" width="160" height="8" as="geometry" />
        </mxCell>
        <mxCell id="p8O_HCt2gGSoECRkVjmH-32" value="+ Listar_figuras()" style="text;strokeColor=none;fillColor=none;align=left;verticalAlign=top;spacingLeft=4;spacingRight=4;overflow=hidden;rotatable=0;points=[[0,0.5],[1,0.5]];portConstraint=eastwest;whiteSpace=wrap;html=1;" parent="p8O_HCt2gGSoECRkVjmH-29" vertex="1">
          <mxGeometry y="78" width="160" height="32" as="geometry" />
        </mxCell>
        <mxCell id="K37eQhUxoqIjgXYXOJ03-1" value="Figura" style="swimlane;fontStyle=1;align=center;verticalAlign=top;childLayout=stackLayout;horizontal=1;startSize=26;horizontalStack=0;resizeParent=1;resizeParentMax=0;resizeLast=0;collapsible=1;marginBottom=0;whiteSpace=wrap;html=1;" parent="1" vertex="1">
          <mxGeometry x="328" y="263" width="160" height="120" as="geometry" />
        </mxCell>
        <mxCell id="K37eQhUxoqIjgXYXOJ03-2" value="&lt;div&gt;+ ID_Figura&lt;/div&gt;&lt;div&gt;+ ID_Plano&lt;/div&gt;+ Nombre&lt;div&gt;+ Color&lt;/div&gt;" style="text;strokeColor=none;fillColor=none;align=left;verticalAlign=top;spacingLeft=4;spacingRight=4;overflow=hidden;rotatable=0;points=[[0,0.5],[1,0.5]];portConstraint=eastwest;whiteSpace=wrap;html=1;" parent="K37eQhUxoqIjgXYXOJ03-1" vertex="1">
          <mxGeometry y="26" width="160" height="64" as="geometry" />
        </mxCell>
        <mxCell id="K37eQhUxoqIjgXYXOJ03-3" value="" style="line;strokeWidth=1;fillColor=none;align=left;verticalAlign=middle;spacingTop=-1;spacingLeft=3;spacingRight=3;rotatable=0;labelPosition=right;points=[];portConstraint=eastwest;strokeColor=inherit;" parent="K37eQhUxoqIjgXYXOJ03-1" vertex="1">
          <mxGeometry y="90" width="160" height="30" as="geometry" />
        </mxCell>
        <mxCell id="K37eQhUxoqIjgXYXOJ03-5" value="Poligono" style="swimlane;fontStyle=1;align=center;verticalAlign=top;childLayout=stackLayout;horizontal=1;startSize=26;horizontalStack=0;resizeParent=1;resizeParentMax=0;resizeLast=0;collapsible=1;marginBottom=0;whiteSpace=wrap;html=1;" parent="1" vertex="1">
          <mxGeometry x="328" y="444" width="160" height="120" as="geometry" />
        </mxCell>
        <mxCell id="K37eQhUxoqIjgXYXOJ03-6" value="&lt;div&gt;+ ID_Figura&lt;/div&gt;&lt;div&gt;+ Tipo&lt;/div&gt;" style="text;strokeColor=none;fillColor=none;align=left;verticalAlign=top;spacingLeft=4;spacingRight=4;overflow=hidden;rotatable=0;points=[[0,0.5],[1,0.5]];portConstraint=eastwest;whiteSpace=wrap;html=1;" parent="K37eQhUxoqIjgXYXOJ03-5" vertex="1">
          <mxGeometry y="26" width="160" height="44" as="geometry" />
        </mxCell>
        <mxCell id="K37eQhUxoqIjgXYXOJ03-7" value="" style="line;strokeWidth=1;fillColor=none;align=left;verticalAlign=middle;spacingTop=-1;spacingLeft=3;spacingRight=3;rotatable=0;labelPosition=right;points=[];portConstraint=eastwest;strokeColor=inherit;" parent="K37eQhUxoqIjgXYXOJ03-5" vertex="1">
          <mxGeometry y="70" width="160" height="8" as="geometry" />
        </mxCell>
        <mxCell id="K37eQhUxoqIjgXYXOJ03-8" value="+ Numero_lineas()&lt;div&gt;+ Perimetro()&lt;/div&gt;" style="text;strokeColor=none;fillColor=none;align=left;verticalAlign=top;spacingLeft=4;spacingRight=4;overflow=hidden;rotatable=0;points=[[0,0.5],[1,0.5]];portConstraint=eastwest;whiteSpace=wrap;html=1;" parent="K37eQhUxoqIjgXYXOJ03-5" vertex="1">
          <mxGeometry y="78" width="160" height="42" as="geometry" />
        </mxCell>
        <mxCell id="K37eQhUxoqIjgXYXOJ03-9" value="Linea" style="swimlane;fontStyle=1;align=center;verticalAlign=top;childLayout=stackLayout;horizontal=1;startSize=26;horizontalStack=0;resizeParent=1;resizeParentMax=0;resizeLast=0;collapsible=1;marginBottom=0;whiteSpace=wrap;html=1;" parent="1" vertex="1">
          <mxGeometry x="607" y="429" width="160" height="108" as="geometry" />
        </mxCell>
        <mxCell id="K37eQhUxoqIjgXYXOJ03-10" value="&lt;div&gt;+ ID_Linea&lt;/div&gt;&lt;div&gt;- Punto_origen&lt;/div&gt;&lt;div&gt;- Punto_fin&lt;/div&gt;&lt;div&gt;+ Logitud&lt;/div&gt;" style="text;strokeColor=none;fillColor=none;align=left;verticalAlign=top;spacingLeft=4;spacingRight=4;overflow=hidden;rotatable=0;points=[[0,0.5],[1,0.5]];portConstraint=eastwest;whiteSpace=wrap;html=1;" parent="K37eQhUxoqIjgXYXOJ03-9" vertex="1">
          <mxGeometry y="26" width="160" height="74" as="geometry" />
        </mxCell>
        <mxCell id="K37eQhUxoqIjgXYXOJ03-11" value="" style="line;strokeWidth=1;fillColor=none;align=left;verticalAlign=middle;spacingTop=-1;spacingLeft=3;spacingRight=3;rotatable=0;labelPosition=right;points=[];portConstraint=eastwest;strokeColor=inherit;" parent="K37eQhUxoqIjgXYXOJ03-9" vertex="1">
          <mxGeometry y="100" width="160" height="8" as="geometry" />
        </mxCell>
        <mxCell id="K37eQhUxoqIjgXYXOJ03-13" value="Regulares" style="swimlane;fontStyle=1;align=center;verticalAlign=top;childLayout=stackLayout;horizontal=1;startSize=26;horizontalStack=0;resizeParent=1;resizeParentMax=0;resizeLast=0;collapsible=1;marginBottom=0;whiteSpace=wrap;html=1;" parent="1" vertex="1">
          <mxGeometry x="328" y="603" width="160" height="100" as="geometry" />
        </mxCell>
        <mxCell id="K37eQhUxoqIjgXYXOJ03-14" value="&lt;div&gt;+ Tipo_poligono_regular&lt;/div&gt;" style="text;strokeColor=none;fillColor=none;align=left;verticalAlign=top;spacingLeft=4;spacingRight=4;overflow=hidden;rotatable=0;points=[[0,0.5],[1,0.5]];portConstraint=eastwest;whiteSpace=wrap;html=1;" parent="K37eQhUxoqIjgXYXOJ03-13" vertex="1">
          <mxGeometry y="26" width="160" height="34" as="geometry" />
        </mxCell>
        <mxCell id="K37eQhUxoqIjgXYXOJ03-15" value="" style="line;strokeWidth=1;fillColor=none;align=left;verticalAlign=middle;spacingTop=-1;spacingLeft=3;spacingRight=3;rotatable=0;labelPosition=right;points=[];portConstraint=eastwest;strokeColor=inherit;" parent="K37eQhUxoqIjgXYXOJ03-13" vertex="1">
          <mxGeometry y="60" width="160" height="8" as="geometry" />
        </mxCell>
        <mxCell id="K37eQhUxoqIjgXYXOJ03-16" value="+ Calcular_area()" style="text;strokeColor=none;fillColor=none;align=left;verticalAlign=top;spacingLeft=4;spacingRight=4;overflow=hidden;rotatable=0;points=[[0,0.5],[1,0.5]];portConstraint=eastwest;whiteSpace=wrap;html=1;" parent="K37eQhUxoqIjgXYXOJ03-13" vertex="1">
          <mxGeometry y="68" width="160" height="32" as="geometry" />
        </mxCell>
        <mxCell id="K37eQhUxoqIjgXYXOJ03-18" value="" style="endArrow=none;html=1;rounded=0;exitX=1;exitY=0.5;exitDx=0;exitDy=0;entryX=0;entryY=0.5;entryDx=0;entryDy=0;" parent="1" source="p8O_HCt2gGSoECRkVjmH-22" target="p8O_HCt2gGSoECRkVjmH-26" edge="1">
          <mxGeometry width="50" height="50" relative="1" as="geometry">
            <mxPoint x="287" y="204" as="sourcePoint" />
            <mxPoint x="337" y="154" as="targetPoint" />
          </mxGeometry>
        </mxCell>
        <mxCell id="K37eQhUxoqIjgXYXOJ03-19" value="Dirigir" style="text;html=1;align=center;verticalAlign=middle;resizable=0;points=[];autosize=1;strokeColor=none;fillColor=none;" parent="1" vertex="1">
          <mxGeometry x="242" y="72" width="50" height="30" as="geometry" />
        </mxCell>
        <mxCell id="K37eQhUxoqIjgXYXOJ03-20" value="1" style="text;html=1;align=center;verticalAlign=middle;resizable=0;points=[];autosize=1;strokeColor=none;fillColor=none;" parent="1" vertex="1">
          <mxGeometry x="207" y="102" width="30" height="30" as="geometry" />
        </mxCell>
        <mxCell id="K37eQhUxoqIjgXYXOJ03-21" value="0..1" style="text;html=1;align=center;verticalAlign=middle;resizable=0;points=[];autosize=1;strokeColor=none;fillColor=none;" parent="1" vertex="1">
          <mxGeometry x="288" y="102" width="40" height="30" as="geometry" />
        </mxCell>
        <mxCell id="K37eQhUxoqIjgXYXOJ03-23" value="Formar" style="text;html=1;align=center;verticalAlign=middle;resizable=0;points=[];autosize=1;strokeColor=none;fillColor=none;" parent="1" vertex="1">
          <mxGeometry x="122" y="213" width="60" height="30" as="geometry" />
        </mxCell>
        <mxCell id="K37eQhUxoqIjgXYXOJ03-24" value="" style="endArrow=none;startArrow=diamondThin;endFill=0;startFill=0;html=1;verticalAlign=bottom;labelBackgroundColor=none;strokeWidth=1;startSize=8;endSize=8;rounded=0;exitX=0.5;exitY=0;exitDx=0;exitDy=0;" parent="1" source="p8O_HCt2gGSoECRkVjmH-29" edge="1">
          <mxGeometry width="160" relative="1" as="geometry">
            <mxPoint x="126" y="264" as="sourcePoint" />
            <mxPoint x="126" y="174" as="targetPoint" />
          </mxGeometry>
        </mxCell>
        <mxCell id="K37eQhUxoqIjgXYXOJ03-25" value="1" style="text;html=1;align=center;verticalAlign=middle;resizable=0;points=[];autosize=1;strokeColor=none;fillColor=none;" parent="1" vertex="1">
          <mxGeometry x="127" y="173" width="30" height="30" as="geometry" />
        </mxCell>
        <mxCell id="K37eQhUxoqIjgXYXOJ03-26" value="1..*" style="text;html=1;align=center;verticalAlign=middle;resizable=0;points=[];autosize=1;strokeColor=none;fillColor=none;" parent="1" vertex="1">
          <mxGeometry x="127" y="243" width="40" height="30" as="geometry" />
        </mxCell>
        <mxCell id="K37eQhUxoqIjgXYXOJ03-27" value="" style="endArrow=none;startArrow=diamondThin;endFill=0;startFill=1;html=1;verticalAlign=bottom;labelBackgroundColor=none;strokeWidth=1;startSize=8;endSize=8;rounded=0;entryX=1;entryY=0.5;entryDx=0;entryDy=0;exitX=0;exitY=0.5;exitDx=0;exitDy=0;" parent="1" source="K37eQhUxoqIjgXYXOJ03-2" target="p8O_HCt2gGSoECRkVjmH-30" edge="1">
          <mxGeometry width="160" relative="1" as="geometry">
            <mxPoint x="237" y="263" as="sourcePoint" />
            <mxPoint x="397" y="263" as="targetPoint" />
          </mxGeometry>
        </mxCell>
        <mxCell id="K37eQhUxoqIjgXYXOJ03-28" value="Contener" style="text;html=1;align=center;verticalAlign=middle;resizable=0;points=[];autosize=1;strokeColor=none;fillColor=none;" parent="1" vertex="1">
          <mxGeometry x="231" y="291" width="70" height="30" as="geometry" />
        </mxCell>
        <mxCell id="K37eQhUxoqIjgXYXOJ03-30" value="" style="endArrow=block;html=1;rounded=0;align=center;verticalAlign=bottom;endFill=0;labelBackgroundColor=none;endSize=8;entryX=0.506;entryY=1;entryDx=0;entryDy=0;entryPerimeter=0;" parent="1" source="K37eQhUxoqIjgXYXOJ03-13" target="K37eQhUxoqIjgXYXOJ03-8" edge="1">
          <mxGeometry x="1" y="-188" relative="1" as="geometry">
            <mxPoint x="207" y="804" as="sourcePoint" />
            <mxPoint x="367" y="804" as="targetPoint" />
            <mxPoint x="170" y="-108" as="offset" />
          </mxGeometry>
        </mxCell>
        <mxCell id="K37eQhUxoqIjgXYXOJ03-31" value="" style="resizable=0;html=1;align=center;verticalAlign=top;labelBackgroundColor=none;" parent="K37eQhUxoqIjgXYXOJ03-30" connectable="0" vertex="1">
          <mxGeometry relative="1" as="geometry" />
        </mxCell>
        <mxCell id="K37eQhUxoqIjgXYXOJ03-32" value="1" style="text;html=1;align=center;verticalAlign=middle;resizable=0;points=[];autosize=1;strokeColor=none;fillColor=none;" parent="1" vertex="1">
          <mxGeometry x="296" y="321" width="30" height="30" as="geometry" />
        </mxCell>
        <mxCell id="K37eQhUxoqIjgXYXOJ03-33" value="" style="endArrow=none;html=1;rounded=0;exitX=1;exitY=0.5;exitDx=0;exitDy=0;entryX=0;entryY=0.5;entryDx=0;entryDy=0;" parent="1" source="K37eQhUxoqIjgXYXOJ03-6" target="K37eQhUxoqIjgXYXOJ03-10" edge="1">
          <mxGeometry width="50" height="50" relative="1" as="geometry">
            <mxPoint x="527" y="343" as="sourcePoint" />
            <mxPoint x="647" y="343" as="targetPoint" />
          </mxGeometry>
        </mxCell>
        <mxCell id="K37eQhUxoqIjgXYXOJ03-34" value="1" style="text;html=1;align=center;verticalAlign=middle;resizable=0;points=[];autosize=1;strokeColor=none;fillColor=none;" parent="1" vertex="1">
          <mxGeometry x="487" y="492" width="30" height="30" as="geometry" />
        </mxCell>
        <mxCell id="K37eQhUxoqIjgXYXOJ03-35" value="3.." style="text;html=1;align=center;verticalAlign=middle;resizable=0;points=[];autosize=1;strokeColor=none;fillColor=none;" parent="1" vertex="1">
          <mxGeometry x="567" y="492" width="40" height="30" as="geometry" />
        </mxCell>
        <mxCell id="K37eQhUxoqIjgXYXOJ03-38" value="" style="endArrow=none;html=1;rounded=0;exitX=0.5;exitY=1;exitDx=0;exitDy=0;entryX=0.5;entryY=0;entryDx=0;entryDy=0;" parent="1" source="K37eQhUxoqIjgXYXOJ03-1" target="K37eQhUxoqIjgXYXOJ03-5" edge="1">
          <mxGeometry width="50" height="50" relative="1" as="geometry">
            <mxPoint x="527.5" y="382" as="sourcePoint" />
            <mxPoint x="646.5" y="382" as="targetPoint" />
          </mxGeometry>
        </mxCell>
        <mxCell id="K37eQhUxoqIjgXYXOJ03-39" value="Equipo" style="swimlane;fontStyle=1;align=center;verticalAlign=top;childLayout=stackLayout;horizontal=1;startSize=26;horizontalStack=0;resizeParent=1;resizeParentMax=0;resizeLast=0;collapsible=1;marginBottom=0;whiteSpace=wrap;html=1;" parent="1" vertex="1">
          <mxGeometry x="73" y="752" width="160" height="134" as="geometry" />
        </mxCell>
        <mxCell id="K37eQhUxoqIjgXYXOJ03-40" value="+ ID_Equipo&lt;div&gt;+ Pais&lt;/div&gt;&lt;div&gt;+ Colores_oficiales&amp;nbsp;&lt;/div&gt;&lt;div&gt;+ Contacto&lt;/div&gt;" style="text;strokeColor=none;fillColor=none;align=left;verticalAlign=top;spacingLeft=4;spacingRight=4;overflow=hidden;rotatable=0;points=[[0,0.5],[1,0.5]];portConstraint=eastwest;whiteSpace=wrap;html=1;" parent="K37eQhUxoqIjgXYXOJ03-39" vertex="1">
          <mxGeometry y="26" width="160" height="74" as="geometry" />
        </mxCell>
        <mxCell id="K37eQhUxoqIjgXYXOJ03-41" value="" style="line;strokeWidth=1;fillColor=none;align=left;verticalAlign=middle;spacingTop=-1;spacingLeft=3;spacingRight=3;rotatable=0;labelPosition=right;points=[];portConstraint=eastwest;strokeColor=inherit;" parent="K37eQhUxoqIjgXYXOJ03-39" vertex="1">
          <mxGeometry y="100" width="160" height="8" as="geometry" />
        </mxCell>
        <mxCell id="K37eQhUxoqIjgXYXOJ03-42" value="+ Jugadores_inscritos()" style="text;strokeColor=none;fillColor=none;align=left;verticalAlign=top;spacingLeft=4;spacingRight=4;overflow=hidden;rotatable=0;points=[[0,0.5],[1,0.5]];portConstraint=eastwest;whiteSpace=wrap;html=1;" parent="K37eQhUxoqIjgXYXOJ03-39" vertex="1">
          <mxGeometry y="108" width="160" height="26" as="geometry" />
        </mxCell>
        <mxCell id="K37eQhUxoqIjgXYXOJ03-43" value="Partido" style="swimlane;fontStyle=1;align=center;verticalAlign=top;childLayout=stackLayout;horizontal=1;startSize=26;horizontalStack=0;resizeParent=1;resizeParentMax=0;resizeLast=0;collapsible=1;marginBottom=0;whiteSpace=wrap;html=1;" parent="1" vertex="1">
          <mxGeometry x="393" y="752" width="160" height="150" as="geometry" />
        </mxCell>
        <mxCell id="K37eQhUxoqIjgXYXOJ03-44" value="+ ID_Partido&lt;div&gt;+ Fecha&lt;/div&gt;&lt;div&gt;+ Hora&lt;/div&gt;&lt;div&gt;+ Equipos&lt;/div&gt;&lt;div&gt;&lt;br&gt;&lt;/div&gt;" style="text;strokeColor=none;fillColor=none;align=left;verticalAlign=top;spacingLeft=4;spacingRight=4;overflow=hidden;rotatable=0;points=[[0,0.5],[1,0.5]];portConstraint=eastwest;whiteSpace=wrap;html=1;" parent="K37eQhUxoqIjgXYXOJ03-43" vertex="1">
          <mxGeometry y="26" width="160" height="74" as="geometry" />
        </mxCell>
        <mxCell id="K37eQhUxoqIjgXYXOJ03-45" value="" style="line;strokeWidth=1;fillColor=none;align=left;verticalAlign=middle;spacingTop=-1;spacingLeft=3;spacingRight=3;rotatable=0;labelPosition=right;points=[];portConstraint=eastwest;strokeColor=inherit;" parent="K37eQhUxoqIjgXYXOJ03-43" vertex="1">
          <mxGeometry y="100" width="160" height="8" as="geometry" />
        </mxCell>
        <mxCell id="K37eQhUxoqIjgXYXOJ03-46" value="+ Resultado()&lt;div&gt;+ Estadisticas()&lt;/div&gt;" style="text;strokeColor=none;fillColor=none;align=left;verticalAlign=top;spacingLeft=4;spacingRight=4;overflow=hidden;rotatable=0;points=[[0,0.5],[1,0.5]];portConstraint=eastwest;whiteSpace=wrap;html=1;" parent="K37eQhUxoqIjgXYXOJ03-43" vertex="1">
          <mxGeometry y="108" width="160" height="42" as="geometry" />
        </mxCell>
        <mxCell id="K37eQhUxoqIjgXYXOJ03-47" value="Estadio" style="swimlane;fontStyle=1;align=center;verticalAlign=top;childLayout=stackLayout;horizontal=1;startSize=26;horizontalStack=0;resizeParent=1;resizeParentMax=0;resizeLast=0;collapsible=1;marginBottom=0;whiteSpace=wrap;html=1;" parent="1" vertex="1">
          <mxGeometry x="393" y="992" width="160" height="104" as="geometry" />
        </mxCell>
        <mxCell id="K37eQhUxoqIjgXYXOJ03-48" value="+ Nombre&lt;div&gt;+ Fecha_construccion&lt;/div&gt;" style="text;strokeColor=none;fillColor=none;align=left;verticalAlign=top;spacingLeft=4;spacingRight=4;overflow=hidden;rotatable=0;points=[[0,0.5],[1,0.5]];portConstraint=eastwest;whiteSpace=wrap;html=1;" parent="K37eQhUxoqIjgXYXOJ03-47" vertex="1">
          <mxGeometry y="26" width="160" height="44" as="geometry" />
        </mxCell>
        <mxCell id="K37eQhUxoqIjgXYXOJ03-49" value="" style="line;strokeWidth=1;fillColor=none;align=left;verticalAlign=middle;spacingTop=-1;spacingLeft=3;spacingRight=3;rotatable=0;labelPosition=right;points=[];portConstraint=eastwest;strokeColor=inherit;" parent="K37eQhUxoqIjgXYXOJ03-47" vertex="1">
          <mxGeometry y="70" width="160" height="8" as="geometry" />
        </mxCell>
        <mxCell id="K37eQhUxoqIjgXYXOJ03-50" value="+ Calcular_capacidad()" style="text;strokeColor=none;fillColor=none;align=left;verticalAlign=top;spacingLeft=4;spacingRight=4;overflow=hidden;rotatable=0;points=[[0,0.5],[1,0.5]];portConstraint=eastwest;whiteSpace=wrap;html=1;" parent="K37eQhUxoqIjgXYXOJ03-47" vertex="1">
          <mxGeometry y="78" width="160" height="26" as="geometry" />
        </mxCell>
        <mxCell id="K37eQhUxoqIjgXYXOJ03-51" value="Grupo" style="swimlane;fontStyle=1;align=center;verticalAlign=top;childLayout=stackLayout;horizontal=1;startSize=26;horizontalStack=0;resizeParent=1;resizeParentMax=0;resizeLast=0;collapsible=1;marginBottom=0;whiteSpace=wrap;html=1;" parent="1" vertex="1">
          <mxGeometry x="73" y="992" width="160" height="104" as="geometry" />
        </mxCell>
        <mxCell id="K37eQhUxoqIjgXYXOJ03-52" value="+ ID_Grupo&lt;div&gt;+ Hotel&lt;/div&gt;" style="text;strokeColor=none;fillColor=none;align=left;verticalAlign=top;spacingLeft=4;spacingRight=4;overflow=hidden;rotatable=0;points=[[0,0.5],[1,0.5]];portConstraint=eastwest;whiteSpace=wrap;html=1;" parent="K37eQhUxoqIjgXYXOJ03-51" vertex="1">
          <mxGeometry y="26" width="160" height="44" as="geometry" />
        </mxCell>
        <mxCell id="K37eQhUxoqIjgXYXOJ03-53" value="" style="line;strokeWidth=1;fillColor=none;align=left;verticalAlign=middle;spacingTop=-1;spacingLeft=3;spacingRight=3;rotatable=0;labelPosition=right;points=[];portConstraint=eastwest;strokeColor=inherit;" parent="K37eQhUxoqIjgXYXOJ03-51" vertex="1">
          <mxGeometry y="70" width="160" height="8" as="geometry" />
        </mxCell>
        <mxCell id="K37eQhUxoqIjgXYXOJ03-54" value="+ Clasificacion_grupo()" style="text;strokeColor=none;fillColor=none;align=left;verticalAlign=top;spacingLeft=4;spacingRight=4;overflow=hidden;rotatable=0;points=[[0,0.5],[1,0.5]];portConstraint=eastwest;whiteSpace=wrap;html=1;" parent="K37eQhUxoqIjgXYXOJ03-51" vertex="1">
          <mxGeometry y="78" width="160" height="26" as="geometry" />
        </mxCell>
        <mxCell id="K37eQhUxoqIjgXYXOJ03-55" value="" style="endArrow=diamondThin;endFill=0;endSize=24;html=1;rounded=0;entryX=1;entryY=0.5;entryDx=0;entryDy=0;exitX=0;exitY=0.5;exitDx=0;exitDy=0;" parent="1" source="K37eQhUxoqIjgXYXOJ03-44" target="K37eQhUxoqIjgXYXOJ03-40" edge="1">
          <mxGeometry width="160" relative="1" as="geometry">
            <mxPoint x="233" y="932" as="sourcePoint" />
            <mxPoint x="393" y="932" as="targetPoint" />
          </mxGeometry>
        </mxCell>
        <mxCell id="K37eQhUxoqIjgXYXOJ03-56" value="3..*" style="text;html=1;align=center;verticalAlign=middle;resizable=0;points=[];autosize=1;strokeColor=none;fillColor=none;" parent="1" vertex="1">
          <mxGeometry x="348" y="815" width="40" height="30" as="geometry" />
        </mxCell>
        <mxCell id="K37eQhUxoqIjgXYXOJ03-57" value="2" style="text;html=1;align=center;verticalAlign=middle;resizable=0;points=[];autosize=1;strokeColor=none;fillColor=none;" parent="1" vertex="1">
          <mxGeometry x="232" y="815" width="30" height="30" as="geometry" />
        </mxCell>
        <mxCell id="K37eQhUxoqIjgXYXOJ03-67" value="" style="endArrow=none;html=1;rounded=0;exitX=0.5;exitY=0;exitDx=0;exitDy=0;entryX=0.5;entryY=1.048;entryDx=0;entryDy=0;entryPerimeter=0;" parent="1" source="K37eQhUxoqIjgXYXOJ03-47" target="K37eQhUxoqIjgXYXOJ03-46" edge="1">
          <mxGeometry width="50" height="50" relative="1" as="geometry">
            <mxPoint x="543" y="952" as="sourcePoint" />
            <mxPoint x="662" y="952" as="targetPoint" />
          </mxGeometry>
        </mxCell>
        <mxCell id="K37eQhUxoqIjgXYXOJ03-68" value="" style="endArrow=none;html=1;rounded=0;exitX=0.5;exitY=0;exitDx=0;exitDy=0;entryX=0.5;entryY=1.038;entryDx=0;entryDy=0;entryPerimeter=0;" parent="1" source="K37eQhUxoqIjgXYXOJ03-51" target="K37eQhUxoqIjgXYXOJ03-42" edge="1">
          <mxGeometry width="50" height="50" relative="1" as="geometry">
            <mxPoint x="213" y="972" as="sourcePoint" />
            <mxPoint x="183" y="962" as="targetPoint" />
          </mxGeometry>
        </mxCell>
        <mxCell id="K37eQhUxoqIjgXYXOJ03-69" value="4" style="text;html=1;align=center;verticalAlign=middle;resizable=0;points=[];autosize=1;strokeColor=none;fillColor=none;" parent="1" vertex="1">
          <mxGeometry x="153" y="962" width="30" height="30" as="geometry" />
        </mxCell>
        <mxCell id="K37eQhUxoqIjgXYXOJ03-70" value="1..1" style="text;html=1;align=center;verticalAlign=middle;resizable=0;points=[];autosize=1;strokeColor=none;fillColor=none;" parent="1" vertex="1">
          <mxGeometry x="153" y="880" width="40" height="30" as="geometry" />
        </mxCell>
        <mxCell id="R0AZBqTg8Ke5Ymap6KH1-1" value="Animal" style="swimlane;fontStyle=1;align=center;verticalAlign=top;childLayout=stackLayout;horizontal=1;startSize=26;horizontalStack=0;resizeParent=1;resizeParentMax=0;resizeLast=0;collapsible=1;marginBottom=0;whiteSpace=wrap;html=1;" vertex="1" parent="1">
          <mxGeometry x="81" y="1240" width="160" height="170" as="geometry" />
        </mxCell>
        <mxCell id="R0AZBqTg8Ke5Ymap6KH1-2" value="+ ID_Animal&lt;div&gt;+ Fecha&lt;/div&gt;&lt;div&gt;+ Lugar_nacimiento&lt;/div&gt;" style="text;strokeColor=none;fillColor=none;align=left;verticalAlign=top;spacingLeft=4;spacingRight=4;overflow=hidden;rotatable=0;points=[[0,0.5],[1,0.5]];portConstraint=eastwest;whiteSpace=wrap;html=1;" vertex="1" parent="R0AZBqTg8Ke5Ymap6KH1-1">
          <mxGeometry y="26" width="160" height="64" as="geometry" />
        </mxCell>
        <mxCell id="R0AZBqTg8Ke5Ymap6KH1-3" value="" style="line;strokeWidth=1;fillColor=none;align=left;verticalAlign=middle;spacingTop=-1;spacingLeft=3;spacingRight=3;rotatable=0;labelPosition=right;points=[];portConstraint=eastwest;strokeColor=inherit;" vertex="1" parent="R0AZBqTg8Ke5Ymap6KH1-1">
          <mxGeometry y="90" width="160" height="8" as="geometry" />
        </mxCell>
        <mxCell id="R0AZBqTg8Ke5Ymap6KH1-4" value="+ Nacer()&lt;div&gt;+ Crecer()&lt;/div&gt;&lt;div&gt;+ Reproducirse()&lt;/div&gt;&lt;div&gt;+ Morir()&lt;/div&gt;" style="text;strokeColor=none;fillColor=none;align=left;verticalAlign=top;spacingLeft=4;spacingRight=4;overflow=hidden;rotatable=0;points=[[0,0.5],[1,0.5]];portConstraint=eastwest;whiteSpace=wrap;html=1;" vertex="1" parent="R0AZBqTg8Ke5Ymap6KH1-1">
          <mxGeometry y="98" width="160" height="72" as="geometry" />
        </mxCell>
        <mxCell id="R0AZBqTg8Ke5Ymap6KH1-5" value="Vertebrados" style="swimlane;fontStyle=1;align=center;verticalAlign=top;childLayout=stackLayout;horizontal=1;startSize=26;horizontalStack=0;resizeParent=1;resizeParentMax=0;resizeLast=0;collapsible=1;marginBottom=0;whiteSpace=wrap;html=1;" vertex="1" parent="1">
          <mxGeometry x="-240" y="1289" width="160" height="78" as="geometry" />
        </mxCell>
        <mxCell id="R0AZBqTg8Ke5Ymap6KH1-6" value="+ ID_Animal&lt;div&gt;+ Tipo_esqueleto&lt;/div&gt;" style="text;strokeColor=none;fillColor=none;align=left;verticalAlign=top;spacingLeft=4;spacingRight=4;overflow=hidden;rotatable=0;points=[[0,0.5],[1,0.5]];portConstraint=eastwest;whiteSpace=wrap;html=1;" vertex="1" parent="R0AZBqTg8Ke5Ymap6KH1-5">
          <mxGeometry y="26" width="160" height="44" as="geometry" />
        </mxCell>
        <mxCell id="R0AZBqTg8Ke5Ymap6KH1-7" value="" style="line;strokeWidth=1;fillColor=none;align=left;verticalAlign=middle;spacingTop=-1;spacingLeft=3;spacingRight=3;rotatable=0;labelPosition=right;points=[];portConstraint=eastwest;strokeColor=inherit;" vertex="1" parent="R0AZBqTg8Ke5Ymap6KH1-5">
          <mxGeometry y="70" width="160" height="8" as="geometry" />
        </mxCell>
        <mxCell id="R0AZBqTg8Ke5Ymap6KH1-9" value="Invertebrados" style="swimlane;fontStyle=1;align=center;verticalAlign=top;childLayout=stackLayout;horizontal=1;startSize=26;horizontalStack=0;resizeParent=1;resizeParentMax=0;resizeLast=0;collapsible=1;marginBottom=0;whiteSpace=wrap;html=1;" vertex="1" parent="1">
          <mxGeometry x="402" y="1224" width="160" height="98" as="geometry" />
        </mxCell>
        <mxCell id="R0AZBqTg8Ke5Ymap6KH1-10" value="+ ID_Animal&lt;div&gt;+ Peso&lt;/div&gt;&lt;div&gt;+ Longitud&lt;/div&gt;" style="text;strokeColor=none;fillColor=none;align=left;verticalAlign=top;spacingLeft=4;spacingRight=4;overflow=hidden;rotatable=0;points=[[0,0.5],[1,0.5]];portConstraint=eastwest;whiteSpace=wrap;html=1;" vertex="1" parent="R0AZBqTg8Ke5Ymap6KH1-9">
          <mxGeometry y="26" width="160" height="64" as="geometry" />
        </mxCell>
        <mxCell id="R0AZBqTg8Ke5Ymap6KH1-11" value="" style="line;strokeWidth=1;fillColor=none;align=left;verticalAlign=middle;spacingTop=-1;spacingLeft=3;spacingRight=3;rotatable=0;labelPosition=right;points=[];portConstraint=eastwest;strokeColor=inherit;" vertex="1" parent="R0AZBqTg8Ke5Ymap6KH1-9">
          <mxGeometry y="90" width="160" height="8" as="geometry" />
        </mxCell>
        <mxCell id="R0AZBqTg8Ke5Ymap6KH1-14" value="" style="endArrow=block;endSize=15;endFill=0;html=1;rounded=0;entryX=0.5;entryY=1;entryDx=0;entryDy=0;startSize=6;" edge="1" parent="1" target="R0AZBqTg8Ke5Ymap6KH1-5">
          <mxGeometry width="160" relative="1" as="geometry">
            <mxPoint x="-160" y="1450" as="sourcePoint" />
            <mxPoint x="89" y="1379" as="targetPoint" />
          </mxGeometry>
        </mxCell>
        <mxCell id="R0AZBqTg8Ke5Ymap6KH1-15" value="Mamiferos" style="swimlane;fontStyle=1;align=center;verticalAlign=top;childLayout=stackLayout;horizontal=1;startSize=26;horizontalStack=0;resizeParent=1;resizeParentMax=0;resizeLast=0;collapsible=1;marginBottom=0;whiteSpace=wrap;html=1;" vertex="1" parent="1">
          <mxGeometry x="-440" y="1480" width="160" height="60" as="geometry" />
        </mxCell>
        <mxCell id="R0AZBqTg8Ke5Ymap6KH1-16" value="+ Duracion_lactancia" style="text;strokeColor=none;fillColor=none;align=left;verticalAlign=top;spacingLeft=4;spacingRight=4;overflow=hidden;rotatable=0;points=[[0,0.5],[1,0.5]];portConstraint=eastwest;whiteSpace=wrap;html=1;" vertex="1" parent="R0AZBqTg8Ke5Ymap6KH1-15">
          <mxGeometry y="26" width="160" height="26" as="geometry" />
        </mxCell>
        <mxCell id="R0AZBqTg8Ke5Ymap6KH1-17" value="" style="line;strokeWidth=1;fillColor=none;align=left;verticalAlign=middle;spacingTop=-1;spacingLeft=3;spacingRight=3;rotatable=0;labelPosition=right;points=[];portConstraint=eastwest;strokeColor=inherit;" vertex="1" parent="R0AZBqTg8Ke5Ymap6KH1-15">
          <mxGeometry y="52" width="160" height="8" as="geometry" />
        </mxCell>
        <mxCell id="R0AZBqTg8Ke5Ymap6KH1-19" value="Aves" style="swimlane;fontStyle=1;align=center;verticalAlign=top;childLayout=stackLayout;horizontal=1;startSize=26;horizontalStack=0;resizeParent=1;resizeParentMax=0;resizeLast=0;collapsible=1;marginBottom=0;whiteSpace=wrap;html=1;" vertex="1" parent="1">
          <mxGeometry x="-240" y="1480" width="160" height="60" as="geometry" />
        </mxCell>
        <mxCell id="R0AZBqTg8Ke5Ymap6KH1-20" value="+ Tipo_pluma" style="text;strokeColor=none;fillColor=none;align=left;verticalAlign=top;spacingLeft=4;spacingRight=4;overflow=hidden;rotatable=0;points=[[0,0.5],[1,0.5]];portConstraint=eastwest;whiteSpace=wrap;html=1;" vertex="1" parent="R0AZBqTg8Ke5Ymap6KH1-19">
          <mxGeometry y="26" width="160" height="26" as="geometry" />
        </mxCell>
        <mxCell id="R0AZBqTg8Ke5Ymap6KH1-21" value="" style="line;strokeWidth=1;fillColor=none;align=left;verticalAlign=middle;spacingTop=-1;spacingLeft=3;spacingRight=3;rotatable=0;labelPosition=right;points=[];portConstraint=eastwest;strokeColor=inherit;" vertex="1" parent="R0AZBqTg8Ke5Ymap6KH1-19">
          <mxGeometry y="52" width="160" height="8" as="geometry" />
        </mxCell>
        <mxCell id="R0AZBqTg8Ke5Ymap6KH1-23" value="Reptiles" style="swimlane;fontStyle=1;align=center;verticalAlign=top;childLayout=stackLayout;horizontal=1;startSize=26;horizontalStack=0;resizeParent=1;resizeParentMax=0;resizeLast=0;collapsible=1;marginBottom=0;whiteSpace=wrap;html=1;" vertex="1" parent="1">
          <mxGeometry x="-41" y="1480" width="160" height="60" as="geometry" />
        </mxCell>
        <mxCell id="R0AZBqTg8Ke5Ymap6KH1-24" value="+ Sangre" style="text;strokeColor=none;fillColor=none;align=left;verticalAlign=top;spacingLeft=4;spacingRight=4;overflow=hidden;rotatable=0;points=[[0,0.5],[1,0.5]];portConstraint=eastwest;whiteSpace=wrap;html=1;" vertex="1" parent="R0AZBqTg8Ke5Ymap6KH1-23">
          <mxGeometry y="26" width="160" height="26" as="geometry" />
        </mxCell>
        <mxCell id="R0AZBqTg8Ke5Ymap6KH1-25" value="" style="line;strokeWidth=1;fillColor=none;align=left;verticalAlign=middle;spacingTop=-1;spacingLeft=3;spacingRight=3;rotatable=0;labelPosition=right;points=[];portConstraint=eastwest;strokeColor=inherit;" vertex="1" parent="R0AZBqTg8Ke5Ymap6KH1-23">
          <mxGeometry y="52" width="160" height="8" as="geometry" />
        </mxCell>
        <mxCell id="R0AZBqTg8Ke5Ymap6KH1-27" value="Peces" style="swimlane;fontStyle=1;align=center;verticalAlign=top;childLayout=stackLayout;horizontal=1;startSize=26;horizontalStack=0;resizeParent=1;resizeParentMax=0;resizeLast=0;collapsible=1;marginBottom=0;whiteSpace=wrap;html=1;" vertex="1" parent="1">
          <mxGeometry x="159" y="1480" width="160" height="60" as="geometry" />
        </mxCell>
        <mxCell id="R0AZBqTg8Ke5Ymap6KH1-28" value="+ Numero_aletas" style="text;strokeColor=none;fillColor=none;align=left;verticalAlign=top;spacingLeft=4;spacingRight=4;overflow=hidden;rotatable=0;points=[[0,0.5],[1,0.5]];portConstraint=eastwest;whiteSpace=wrap;html=1;" vertex="1" parent="R0AZBqTg8Ke5Ymap6KH1-27">
          <mxGeometry y="26" width="160" height="26" as="geometry" />
        </mxCell>
        <mxCell id="R0AZBqTg8Ke5Ymap6KH1-29" value="" style="line;strokeWidth=1;fillColor=none;align=left;verticalAlign=middle;spacingTop=-1;spacingLeft=3;spacingRight=3;rotatable=0;labelPosition=right;points=[];portConstraint=eastwest;strokeColor=inherit;" vertex="1" parent="R0AZBqTg8Ke5Ymap6KH1-27">
          <mxGeometry y="52" width="160" height="8" as="geometry" />
        </mxCell>
        <mxCell id="R0AZBqTg8Ke5Ymap6KH1-31" value="Anfibios" style="swimlane;fontStyle=1;align=center;verticalAlign=top;childLayout=stackLayout;horizontal=1;startSize=26;horizontalStack=0;resizeParent=1;resizeParentMax=0;resizeLast=0;collapsible=1;marginBottom=0;whiteSpace=wrap;html=1;" vertex="1" parent="1">
          <mxGeometry x="-641" y="1480" width="160" height="60" as="geometry" />
        </mxCell>
        <mxCell id="R0AZBqTg8Ke5Ymap6KH1-32" value="+ Esperanza_vida_media" style="text;strokeColor=none;fillColor=none;align=left;verticalAlign=top;spacingLeft=4;spacingRight=4;overflow=hidden;rotatable=0;points=[[0,0.5],[1,0.5]];portConstraint=eastwest;whiteSpace=wrap;html=1;" vertex="1" parent="R0AZBqTg8Ke5Ymap6KH1-31">
          <mxGeometry y="26" width="160" height="26" as="geometry" />
        </mxCell>
        <mxCell id="R0AZBqTg8Ke5Ymap6KH1-33" value="" style="line;strokeWidth=1;fillColor=none;align=left;verticalAlign=middle;spacingTop=-1;spacingLeft=3;spacingRight=3;rotatable=0;labelPosition=right;points=[];portConstraint=eastwest;strokeColor=inherit;" vertex="1" parent="R0AZBqTg8Ke5Ymap6KH1-31">
          <mxGeometry y="52" width="160" height="8" as="geometry" />
        </mxCell>
        <mxCell id="R0AZBqTg8Ke5Ymap6KH1-35" value="Moluscos" style="swimlane;fontStyle=1;align=center;verticalAlign=top;childLayout=stackLayout;horizontal=1;startSize=26;horizontalStack=0;resizeParent=1;resizeParentMax=0;resizeLast=0;collapsible=1;marginBottom=0;whiteSpace=wrap;html=1;" vertex="1" parent="1">
          <mxGeometry x="500" y="1392" width="160" height="86" as="geometry" />
        </mxCell>
        <mxCell id="R0AZBqTg8Ke5Ymap6KH1-36" value="+ Concha" style="text;strokeColor=none;fillColor=none;align=left;verticalAlign=top;spacingLeft=4;spacingRight=4;overflow=hidden;rotatable=0;points=[[0,0.5],[1,0.5]];portConstraint=eastwest;whiteSpace=wrap;html=1;" vertex="1" parent="R0AZBqTg8Ke5Ymap6KH1-35">
          <mxGeometry y="26" width="160" height="26" as="geometry" />
        </mxCell>
        <mxCell id="R0AZBqTg8Ke5Ymap6KH1-37" value="" style="line;strokeWidth=1;fillColor=none;align=left;verticalAlign=middle;spacingTop=-1;spacingLeft=3;spacingRight=3;rotatable=0;labelPosition=right;points=[];portConstraint=eastwest;strokeColor=inherit;" vertex="1" parent="R0AZBqTg8Ke5Ymap6KH1-35">
          <mxGeometry y="52" width="160" height="8" as="geometry" />
        </mxCell>
        <mxCell id="R0AZBqTg8Ke5Ymap6KH1-38" value="+ method(type): type" style="text;strokeColor=none;fillColor=none;align=left;verticalAlign=top;spacingLeft=4;spacingRight=4;overflow=hidden;rotatable=0;points=[[0,0.5],[1,0.5]];portConstraint=eastwest;whiteSpace=wrap;html=1;" vertex="1" parent="R0AZBqTg8Ke5Ymap6KH1-35">
          <mxGeometry y="60" width="160" height="26" as="geometry" />
        </mxCell>
        <mxCell id="R0AZBqTg8Ke5Ymap6KH1-39" value="Insectos" style="swimlane;fontStyle=1;align=center;verticalAlign=top;childLayout=stackLayout;horizontal=1;startSize=26;horizontalStack=0;resizeParent=1;resizeParentMax=0;resizeLast=0;collapsible=1;marginBottom=0;whiteSpace=wrap;html=1;" vertex="1" parent="1">
          <mxGeometry x="300" y="1392" width="160" height="86" as="geometry" />
        </mxCell>
        <mxCell id="R0AZBqTg8Ke5Ymap6KH1-40" value="+ Numero_patas" style="text;strokeColor=none;fillColor=none;align=left;verticalAlign=top;spacingLeft=4;spacingRight=4;overflow=hidden;rotatable=0;points=[[0,0.5],[1,0.5]];portConstraint=eastwest;whiteSpace=wrap;html=1;" vertex="1" parent="R0AZBqTg8Ke5Ymap6KH1-39">
          <mxGeometry y="26" width="160" height="26" as="geometry" />
        </mxCell>
        <mxCell id="R0AZBqTg8Ke5Ymap6KH1-41" value="" style="line;strokeWidth=1;fillColor=none;align=left;verticalAlign=middle;spacingTop=-1;spacingLeft=3;spacingRight=3;rotatable=0;labelPosition=right;points=[];portConstraint=eastwest;strokeColor=inherit;" vertex="1" parent="R0AZBqTg8Ke5Ymap6KH1-39">
          <mxGeometry y="52" width="160" height="8" as="geometry" />
        </mxCell>
        <mxCell id="R0AZBqTg8Ke5Ymap6KH1-42" value="+ method(type): type" style="text;strokeColor=none;fillColor=none;align=left;verticalAlign=top;spacingLeft=4;spacingRight=4;overflow=hidden;rotatable=0;points=[[0,0.5],[1,0.5]];portConstraint=eastwest;whiteSpace=wrap;html=1;" vertex="1" parent="R0AZBqTg8Ke5Ymap6KH1-39">
          <mxGeometry y="60" width="160" height="26" as="geometry" />
        </mxCell>
        <mxCell id="R0AZBqTg8Ke5Ymap6KH1-43" value="" style="endArrow=none;html=1;rounded=0;" edge="1" parent="1">
          <mxGeometry width="50" height="50" relative="1" as="geometry">
            <mxPoint x="-560" y="1440" as="sourcePoint" />
            <mxPoint x="240" y="1440" as="targetPoint" />
          </mxGeometry>
        </mxCell>
        <mxCell id="R0AZBqTg8Ke5Ymap6KH1-45" value="" style="endArrow=none;html=1;rounded=0;exitX=0.5;exitY=0;exitDx=0;exitDy=0;" edge="1" parent="1" source="R0AZBqTg8Ke5Ymap6KH1-31">
          <mxGeometry width="50" height="50" relative="1" as="geometry">
            <mxPoint x="-590" y="1417" as="sourcePoint" />
            <mxPoint x="-561" y="1440" as="targetPoint" />
          </mxGeometry>
        </mxCell>
        <mxCell id="R0AZBqTg8Ke5Ymap6KH1-46" value="" style="endArrow=none;html=1;rounded=0;exitX=0.5;exitY=0;exitDx=0;exitDy=0;" edge="1" parent="1" source="R0AZBqTg8Ke5Ymap6KH1-15">
          <mxGeometry width="50" height="50" relative="1" as="geometry">
            <mxPoint x="-551" y="1490" as="sourcePoint" />
            <mxPoint x="-360" y="1440" as="targetPoint" />
          </mxGeometry>
        </mxCell>
        <mxCell id="R0AZBqTg8Ke5Ymap6KH1-47" value="" style="endArrow=none;html=1;rounded=0;exitX=0.5;exitY=0;exitDx=0;exitDy=0;" edge="1" parent="1">
          <mxGeometry width="50" height="50" relative="1" as="geometry">
            <mxPoint x="-160" y="1480" as="sourcePoint" />
            <mxPoint x="-160" y="1440" as="targetPoint" />
          </mxGeometry>
        </mxCell>
        <mxCell id="R0AZBqTg8Ke5Ymap6KH1-52" value="" style="endArrow=none;html=1;rounded=0;exitX=0.5;exitY=0;exitDx=0;exitDy=0;" edge="1" parent="1">
          <mxGeometry width="50" height="50" relative="1" as="geometry">
            <mxPoint x="40" y="1480" as="sourcePoint" />
            <mxPoint x="40" y="1440" as="targetPoint" />
          </mxGeometry>
        </mxCell>
        <mxCell id="R0AZBqTg8Ke5Ymap6KH1-53" value="" style="endArrow=none;html=1;rounded=0;exitX=0.5;exitY=0;exitDx=0;exitDy=0;" edge="1" parent="1">
          <mxGeometry width="50" height="50" relative="1" as="geometry">
            <mxPoint x="240" y="1480" as="sourcePoint" />
            <mxPoint x="240" y="1440" as="targetPoint" />
          </mxGeometry>
        </mxCell>
        <mxCell id="R0AZBqTg8Ke5Ymap6KH1-54" value="" style="endArrow=block;endSize=15;endFill=0;html=1;rounded=0;startSize=6;entryX=0.488;entryY=0.962;entryDx=0;entryDy=0;entryPerimeter=0;" edge="1" parent="1">
          <mxGeometry width="160" relative="1" as="geometry">
            <mxPoint x="480" y="1360" as="sourcePoint" />
            <mxPoint x="480.0799999999999" y="1323.0120000000002" as="targetPoint" />
          </mxGeometry>
        </mxCell>
        <mxCell id="R0AZBqTg8Ke5Ymap6KH1-55" value="" style="endArrow=none;html=1;rounded=0;" edge="1" parent="1">
          <mxGeometry width="50" height="50" relative="1" as="geometry">
            <mxPoint x="360" y="1360" as="sourcePoint" />
            <mxPoint x="600" y="1360" as="targetPoint" />
          </mxGeometry>
        </mxCell>
        <mxCell id="R0AZBqTg8Ke5Ymap6KH1-56" value="" style="endArrow=none;html=1;rounded=0;exitX=0.625;exitY=0.023;exitDx=0;exitDy=0;exitPerimeter=0;" edge="1" parent="1">
          <mxGeometry width="50" height="50" relative="1" as="geometry">
            <mxPoint x="600" y="1390.978" as="sourcePoint" />
            <mxPoint x="600" y="1359" as="targetPoint" />
          </mxGeometry>
        </mxCell>
        <mxCell id="R0AZBqTg8Ke5Ymap6KH1-57" value="" style="endArrow=none;html=1;rounded=0;exitX=0.625;exitY=0.023;exitDx=0;exitDy=0;exitPerimeter=0;" edge="1" parent="1">
          <mxGeometry width="50" height="50" relative="1" as="geometry">
            <mxPoint x="359" y="1390.978" as="sourcePoint" />
            <mxPoint x="359" y="1359" as="targetPoint" />
          </mxGeometry>
        </mxCell>
        <mxCell id="R0AZBqTg8Ke5Ymap6KH1-58" value="Humano" style="swimlane;fontStyle=1;align=center;verticalAlign=top;childLayout=stackLayout;horizontal=1;startSize=26;horizontalStack=0;resizeParent=1;resizeParentMax=0;resizeLast=0;collapsible=1;marginBottom=0;whiteSpace=wrap;html=1;" vertex="1" parent="1">
          <mxGeometry x="-440" y="1600" width="160" height="86" as="geometry" />
        </mxCell>
        <mxCell id="R0AZBqTg8Ke5Ymap6KH1-59" value="+ Razonamiento" style="text;strokeColor=none;fillColor=none;align=left;verticalAlign=top;spacingLeft=4;spacingRight=4;overflow=hidden;rotatable=0;points=[[0,0.5],[1,0.5]];portConstraint=eastwest;whiteSpace=wrap;html=1;" vertex="1" parent="R0AZBqTg8Ke5Ymap6KH1-58">
          <mxGeometry y="26" width="160" height="26" as="geometry" />
        </mxCell>
        <mxCell id="R0AZBqTg8Ke5Ymap6KH1-60" value="" style="line;strokeWidth=1;fillColor=none;align=left;verticalAlign=middle;spacingTop=-1;spacingLeft=3;spacingRight=3;rotatable=0;labelPosition=right;points=[];portConstraint=eastwest;strokeColor=inherit;" vertex="1" parent="R0AZBqTg8Ke5Ymap6KH1-58">
          <mxGeometry y="52" width="160" height="8" as="geometry" />
        </mxCell>
        <mxCell id="R0AZBqTg8Ke5Ymap6KH1-61" value="+ Hablar()" style="text;strokeColor=none;fillColor=none;align=left;verticalAlign=top;spacingLeft=4;spacingRight=4;overflow=hidden;rotatable=0;points=[[0,0.5],[1,0.5]];portConstraint=eastwest;whiteSpace=wrap;html=1;" vertex="1" parent="R0AZBqTg8Ke5Ymap6KH1-58">
          <mxGeometry y="60" width="160" height="26" as="geometry" />
        </mxCell>
        <mxCell id="R0AZBqTg8Ke5Ymap6KH1-62" value="Gaviota" style="swimlane;fontStyle=1;align=center;verticalAlign=top;childLayout=stackLayout;horizontal=1;startSize=26;horizontalStack=0;resizeParent=1;resizeParentMax=0;resizeLast=0;collapsible=1;marginBottom=0;whiteSpace=wrap;html=1;" vertex="1" parent="1">
          <mxGeometry x="-240" y="1600" width="160" height="86" as="geometry" />
        </mxCell>
        <mxCell id="R0AZBqTg8Ke5Ymap6KH1-63" value="+ Envergadura_alas" style="text;strokeColor=none;fillColor=none;align=left;verticalAlign=top;spacingLeft=4;spacingRight=4;overflow=hidden;rotatable=0;points=[[0,0.5],[1,0.5]];portConstraint=eastwest;whiteSpace=wrap;html=1;" vertex="1" parent="R0AZBqTg8Ke5Ymap6KH1-62">
          <mxGeometry y="26" width="160" height="26" as="geometry" />
        </mxCell>
        <mxCell id="R0AZBqTg8Ke5Ymap6KH1-64" value="" style="line;strokeWidth=1;fillColor=none;align=left;verticalAlign=middle;spacingTop=-1;spacingLeft=3;spacingRight=3;rotatable=0;labelPosition=right;points=[];portConstraint=eastwest;strokeColor=inherit;" vertex="1" parent="R0AZBqTg8Ke5Ymap6KH1-62">
          <mxGeometry y="52" width="160" height="8" as="geometry" />
        </mxCell>
        <mxCell id="R0AZBqTg8Ke5Ymap6KH1-65" value="+ Pescar()" style="text;strokeColor=none;fillColor=none;align=left;verticalAlign=top;spacingLeft=4;spacingRight=4;overflow=hidden;rotatable=0;points=[[0,0.5],[1,0.5]];portConstraint=eastwest;whiteSpace=wrap;html=1;" vertex="1" parent="R0AZBqTg8Ke5Ymap6KH1-62">
          <mxGeometry y="60" width="160" height="26" as="geometry" />
        </mxCell>
        <mxCell id="R0AZBqTg8Ke5Ymap6KH1-66" value="Cocodrilo" style="swimlane;fontStyle=1;align=center;verticalAlign=top;childLayout=stackLayout;horizontal=1;startSize=26;horizontalStack=0;resizeParent=1;resizeParentMax=0;resizeLast=0;collapsible=1;marginBottom=0;whiteSpace=wrap;html=1;" vertex="1" parent="1">
          <mxGeometry x="-41" y="1600" width="160" height="86" as="geometry" />
        </mxCell>
        <mxCell id="R0AZBqTg8Ke5Ymap6KH1-67" value="+ Fuerza_mandibula" style="text;strokeColor=none;fillColor=none;align=left;verticalAlign=top;spacingLeft=4;spacingRight=4;overflow=hidden;rotatable=0;points=[[0,0.5],[1,0.5]];portConstraint=eastwest;whiteSpace=wrap;html=1;" vertex="1" parent="R0AZBqTg8Ke5Ymap6KH1-66">
          <mxGeometry y="26" width="160" height="26" as="geometry" />
        </mxCell>
        <mxCell id="R0AZBqTg8Ke5Ymap6KH1-68" value="" style="line;strokeWidth=1;fillColor=none;align=left;verticalAlign=middle;spacingTop=-1;spacingLeft=3;spacingRight=3;rotatable=0;labelPosition=right;points=[];portConstraint=eastwest;strokeColor=inherit;" vertex="1" parent="R0AZBqTg8Ke5Ymap6KH1-66">
          <mxGeometry y="52" width="160" height="8" as="geometry" />
        </mxCell>
        <mxCell id="R0AZBqTg8Ke5Ymap6KH1-69" value="+ Cazar()" style="text;strokeColor=none;fillColor=none;align=left;verticalAlign=top;spacingLeft=4;spacingRight=4;overflow=hidden;rotatable=0;points=[[0,0.5],[1,0.5]];portConstraint=eastwest;whiteSpace=wrap;html=1;" vertex="1" parent="R0AZBqTg8Ke5Ymap6KH1-66">
          <mxGeometry y="60" width="160" height="26" as="geometry" />
        </mxCell>
        <mxCell id="R0AZBqTg8Ke5Ymap6KH1-70" value="Rana" style="swimlane;fontStyle=1;align=center;verticalAlign=top;childLayout=stackLayout;horizontal=1;startSize=26;horizontalStack=0;resizeParent=1;resizeParentMax=0;resizeLast=0;collapsible=1;marginBottom=0;whiteSpace=wrap;html=1;" vertex="1" parent="1">
          <mxGeometry x="-641" y="1600" width="160" height="86" as="geometry" />
        </mxCell>
        <mxCell id="R0AZBqTg8Ke5Ymap6KH1-71" value="+ Venenosa" style="text;strokeColor=none;fillColor=none;align=left;verticalAlign=top;spacingLeft=4;spacingRight=4;overflow=hidden;rotatable=0;points=[[0,0.5],[1,0.5]];portConstraint=eastwest;whiteSpace=wrap;html=1;" vertex="1" parent="R0AZBqTg8Ke5Ymap6KH1-70">
          <mxGeometry y="26" width="160" height="26" as="geometry" />
        </mxCell>
        <mxCell id="R0AZBqTg8Ke5Ymap6KH1-72" value="" style="line;strokeWidth=1;fillColor=none;align=left;verticalAlign=middle;spacingTop=-1;spacingLeft=3;spacingRight=3;rotatable=0;labelPosition=right;points=[];portConstraint=eastwest;strokeColor=inherit;" vertex="1" parent="R0AZBqTg8Ke5Ymap6KH1-70">
          <mxGeometry y="52" width="160" height="8" as="geometry" />
        </mxCell>
        <mxCell id="R0AZBqTg8Ke5Ymap6KH1-73" value="+ Saltar()" style="text;strokeColor=none;fillColor=none;align=left;verticalAlign=top;spacingLeft=4;spacingRight=4;overflow=hidden;rotatable=0;points=[[0,0.5],[1,0.5]];portConstraint=eastwest;whiteSpace=wrap;html=1;" vertex="1" parent="R0AZBqTg8Ke5Ymap6KH1-70">
          <mxGeometry y="60" width="160" height="26" as="geometry" />
        </mxCell>
        <mxCell id="R0AZBqTg8Ke5Ymap6KH1-74" value="Atun" style="swimlane;fontStyle=1;align=center;verticalAlign=top;childLayout=stackLayout;horizontal=1;startSize=26;horizontalStack=0;resizeParent=1;resizeParentMax=0;resizeLast=0;collapsible=1;marginBottom=0;whiteSpace=wrap;html=1;" vertex="1" parent="1">
          <mxGeometry x="159" y="1600" width="160" height="86" as="geometry" />
        </mxCell>
        <mxCell id="R0AZBqTg8Ke5Ymap6KH1-75" value="+ Velocidad_nado" style="text;strokeColor=none;fillColor=none;align=left;verticalAlign=top;spacingLeft=4;spacingRight=4;overflow=hidden;rotatable=0;points=[[0,0.5],[1,0.5]];portConstraint=eastwest;whiteSpace=wrap;html=1;" vertex="1" parent="R0AZBqTg8Ke5Ymap6KH1-74">
          <mxGeometry y="26" width="160" height="26" as="geometry" />
        </mxCell>
        <mxCell id="R0AZBqTg8Ke5Ymap6KH1-76" value="" style="line;strokeWidth=1;fillColor=none;align=left;verticalAlign=middle;spacingTop=-1;spacingLeft=3;spacingRight=3;rotatable=0;labelPosition=right;points=[];portConstraint=eastwest;strokeColor=inherit;" vertex="1" parent="R0AZBqTg8Ke5Ymap6KH1-74">
          <mxGeometry y="52" width="160" height="8" as="geometry" />
        </mxCell>
        <mxCell id="R0AZBqTg8Ke5Ymap6KH1-77" value="+ Migrar" style="text;strokeColor=none;fillColor=none;align=left;verticalAlign=top;spacingLeft=4;spacingRight=4;overflow=hidden;rotatable=0;points=[[0,0.5],[1,0.5]];portConstraint=eastwest;whiteSpace=wrap;html=1;" vertex="1" parent="R0AZBqTg8Ke5Ymap6KH1-74">
          <mxGeometry y="60" width="160" height="26" as="geometry" />
        </mxCell>
        <mxCell id="R0AZBqTg8Ke5Ymap6KH1-78" value="" style="endArrow=none;html=1;rounded=0;exitX=1;exitY=0.5;exitDx=0;exitDy=0;entryX=0;entryY=0.5;entryDx=0;entryDy=0;" edge="1" parent="1" source="R0AZBqTg8Ke5Ymap6KH1-6" target="R0AZBqTg8Ke5Ymap6KH1-2">
          <mxGeometry width="50" height="50" relative="1" as="geometry">
            <mxPoint y="1300" as="sourcePoint" />
            <mxPoint x="50" y="1250" as="targetPoint" />
          </mxGeometry>
        </mxCell>
        <mxCell id="R0AZBqTg8Ke5Ymap6KH1-79" value="" style="endArrow=none;html=1;rounded=0;exitX=1;exitY=0.5;exitDx=0;exitDy=0;entryX=0;entryY=0.5;entryDx=0;entryDy=0;" edge="1" parent="1" source="R0AZBqTg8Ke5Ymap6KH1-2" target="R0AZBqTg8Ke5Ymap6KH1-10">
          <mxGeometry width="50" height="50" relative="1" as="geometry">
            <mxPoint x="-70" y="1347" as="sourcePoint" />
            <mxPoint x="91" y="1308" as="targetPoint" />
          </mxGeometry>
        </mxCell>
        <mxCell id="R0AZBqTg8Ke5Ymap6KH1-80" value="" style="endArrow=block;endSize=15;endFill=0;html=1;rounded=0;entryX=0.5;entryY=1;entryDx=0;entryDy=0;startSize=6;" edge="1" parent="1">
          <mxGeometry width="160" relative="1" as="geometry">
            <mxPoint x="-561" y="1600" as="sourcePoint" />
            <mxPoint x="-561.5" y="1540" as="targetPoint" />
          </mxGeometry>
        </mxCell>
        <mxCell id="R0AZBqTg8Ke5Ymap6KH1-81" value="" style="endArrow=block;endSize=15;endFill=0;html=1;rounded=0;entryX=0.5;entryY=1;entryDx=0;entryDy=0;startSize=6;" edge="1" parent="1">
          <mxGeometry width="160" relative="1" as="geometry">
            <mxPoint x="-360" y="1600" as="sourcePoint" />
            <mxPoint x="-360.5" y="1540" as="targetPoint" />
          </mxGeometry>
        </mxCell>
        <mxCell id="R0AZBqTg8Ke5Ymap6KH1-82" value="" style="endArrow=block;endSize=15;endFill=0;html=1;rounded=0;entryX=0.5;entryY=1;entryDx=0;entryDy=0;startSize=6;" edge="1" parent="1">
          <mxGeometry width="160" relative="1" as="geometry">
            <mxPoint x="-160" y="1600" as="sourcePoint" />
            <mxPoint x="-160.5" y="1540" as="targetPoint" />
          </mxGeometry>
        </mxCell>
        <mxCell id="R0AZBqTg8Ke5Ymap6KH1-83" value="" style="endArrow=block;endSize=15;endFill=0;html=1;rounded=0;entryX=0.5;entryY=1;entryDx=0;entryDy=0;startSize=6;" edge="1" parent="1">
          <mxGeometry width="160" relative="1" as="geometry">
            <mxPoint x="39" y="1600" as="sourcePoint" />
            <mxPoint x="38.5" y="1540" as="targetPoint" />
          </mxGeometry>
        </mxCell>
        <mxCell id="R0AZBqTg8Ke5Ymap6KH1-84" value="" style="endArrow=block;endSize=15;endFill=0;html=1;rounded=0;entryX=0.5;entryY=1;entryDx=0;entryDy=0;startSize=6;" edge="1" parent="1">
          <mxGeometry width="160" relative="1" as="geometry">
            <mxPoint x="239" y="1600" as="sourcePoint" />
            <mxPoint x="238.5" y="1540" as="targetPoint" />
          </mxGeometry>
        </mxCell>
        <mxCell id="R0AZBqTg8Ke5Ymap6KH1-85" value="Movil" style="swimlane;fontStyle=1;align=center;verticalAlign=top;childLayout=stackLayout;horizontal=1;startSize=26;horizontalStack=0;resizeParent=1;resizeParentMax=0;resizeLast=0;collapsible=1;marginBottom=0;whiteSpace=wrap;html=1;" vertex="1" parent="1">
          <mxGeometry x="1050" y="930" width="160" height="150" as="geometry" />
        </mxCell>
        <mxCell id="R0AZBqTg8Ke5Ymap6KH1-86" value="+ Marca&amp;nbsp;&lt;div&gt;+ Modelo&amp;nbsp;&lt;/div&gt;&lt;div&gt;+ Memoria_interna&lt;/div&gt;&lt;div&gt;+ Sistema_operativo&lt;/div&gt;" style="text;strokeColor=none;fillColor=none;align=left;verticalAlign=top;spacingLeft=4;spacingRight=4;overflow=hidden;rotatable=0;points=[[0,0.5],[1,0.5]];portConstraint=eastwest;whiteSpace=wrap;html=1;" vertex="1" parent="R0AZBqTg8Ke5Ymap6KH1-85">
          <mxGeometry y="26" width="160" height="74" as="geometry" />
        </mxCell>
        <mxCell id="R0AZBqTg8Ke5Ymap6KH1-87" value="" style="line;strokeWidth=1;fillColor=none;align=left;verticalAlign=middle;spacingTop=-1;spacingLeft=3;spacingRight=3;rotatable=0;labelPosition=right;points=[];portConstraint=eastwest;strokeColor=inherit;" vertex="1" parent="R0AZBqTg8Ke5Ymap6KH1-85">
          <mxGeometry y="100" width="160" height="8" as="geometry" />
        </mxCell>
        <mxCell id="R0AZBqTg8Ke5Ymap6KH1-88" value="&lt;div&gt;+ Encender()&lt;/div&gt;+ Apagar()&lt;div&gt;&lt;br&gt;&lt;/div&gt;" style="text;strokeColor=none;fillColor=none;align=left;verticalAlign=top;spacingLeft=4;spacingRight=4;overflow=hidden;rotatable=0;points=[[0,0.5],[1,0.5]];portConstraint=eastwest;whiteSpace=wrap;html=1;" vertex="1" parent="R0AZBqTg8Ke5Ymap6KH1-85">
          <mxGeometry y="108" width="160" height="42" as="geometry" />
        </mxCell>
        <mxCell id="R0AZBqTg8Ke5Ymap6KH1-89" value="" style="endArrow=diamondThin;endFill=1;endSize=24;html=1;rounded=0;entryX=1;entryY=0.5;entryDx=0;entryDy=0;" edge="1" parent="1" target="R0AZBqTg8Ke5Ymap6KH1-86">
          <mxGeometry width="160" relative="1" as="geometry">
            <mxPoint x="1310" y="993" as="sourcePoint" />
            <mxPoint x="1210" y="1070" as="targetPoint" />
          </mxGeometry>
        </mxCell>
        <mxCell id="R0AZBqTg8Ke5Ymap6KH1-90" value="Media" style="swimlane;fontStyle=1;align=center;verticalAlign=top;childLayout=stackLayout;horizontal=1;startSize=26;horizontalStack=0;resizeParent=1;resizeParentMax=0;resizeLast=0;collapsible=1;marginBottom=0;whiteSpace=wrap;html=1;" vertex="1" parent="1">
          <mxGeometry x="1350" y="676" width="160" height="120" as="geometry" />
        </mxCell>
        <mxCell id="R0AZBqTg8Ke5Ymap6KH1-91" value="+ Fotos&lt;div&gt;+ Videos&lt;/div&gt;" style="text;strokeColor=none;fillColor=none;align=left;verticalAlign=top;spacingLeft=4;spacingRight=4;overflow=hidden;rotatable=0;points=[[0,0.5],[1,0.5]];portConstraint=eastwest;whiteSpace=wrap;html=1;" vertex="1" parent="R0AZBqTg8Ke5Ymap6KH1-90">
          <mxGeometry y="26" width="160" height="44" as="geometry" />
        </mxCell>
        <mxCell id="R0AZBqTg8Ke5Ymap6KH1-92" value="" style="line;strokeWidth=1;fillColor=none;align=left;verticalAlign=middle;spacingTop=-1;spacingLeft=3;spacingRight=3;rotatable=0;labelPosition=right;points=[];portConstraint=eastwest;strokeColor=inherit;" vertex="1" parent="R0AZBqTg8Ke5Ymap6KH1-90">
          <mxGeometry y="70" width="160" height="8" as="geometry" />
        </mxCell>
        <mxCell id="R0AZBqTg8Ke5Ymap6KH1-93" value="+ Ver_fotos()&lt;div&gt;+ Grabar_video()&lt;/div&gt;" style="text;strokeColor=none;fillColor=none;align=left;verticalAlign=top;spacingLeft=4;spacingRight=4;overflow=hidden;rotatable=0;points=[[0,0.5],[1,0.5]];portConstraint=eastwest;whiteSpace=wrap;html=1;" vertex="1" parent="R0AZBqTg8Ke5Ymap6KH1-90">
          <mxGeometry y="78" width="160" height="42" as="geometry" />
        </mxCell>
        <mxCell id="R0AZBqTg8Ke5Ymap6KH1-94" value="Contactos" style="swimlane;fontStyle=1;align=center;verticalAlign=top;childLayout=stackLayout;horizontal=1;startSize=26;horizontalStack=0;resizeParent=1;resizeParentMax=0;resizeLast=0;collapsible=1;marginBottom=0;whiteSpace=wrap;html=1;" vertex="1" parent="1">
          <mxGeometry x="1350" y="815" width="160" height="110" as="geometry" />
        </mxCell>
        <mxCell id="R0AZBqTg8Ke5Ymap6KH1-95" value="+ Lista" style="text;strokeColor=none;fillColor=none;align=left;verticalAlign=top;spacingLeft=4;spacingRight=4;overflow=hidden;rotatable=0;points=[[0,0.5],[1,0.5]];portConstraint=eastwest;whiteSpace=wrap;html=1;" vertex="1" parent="R0AZBqTg8Ke5Ymap6KH1-94">
          <mxGeometry y="26" width="160" height="34" as="geometry" />
        </mxCell>
        <mxCell id="R0AZBqTg8Ke5Ymap6KH1-96" value="" style="line;strokeWidth=1;fillColor=none;align=left;verticalAlign=middle;spacingTop=-1;spacingLeft=3;spacingRight=3;rotatable=0;labelPosition=right;points=[];portConstraint=eastwest;strokeColor=inherit;" vertex="1" parent="R0AZBqTg8Ke5Ymap6KH1-94">
          <mxGeometry y="60" width="160" height="8" as="geometry" />
        </mxCell>
        <mxCell id="R0AZBqTg8Ke5Ymap6KH1-97" value="+ Agegar_contacto()&lt;div&gt;+ Eliminar_contacto()&lt;/div&gt;" style="text;strokeColor=none;fillColor=none;align=left;verticalAlign=top;spacingLeft=4;spacingRight=4;overflow=hidden;rotatable=0;points=[[0,0.5],[1,0.5]];portConstraint=eastwest;whiteSpace=wrap;html=1;" vertex="1" parent="R0AZBqTg8Ke5Ymap6KH1-94">
          <mxGeometry y="68" width="160" height="42" as="geometry" />
        </mxCell>
        <mxCell id="R0AZBqTg8Ke5Ymap6KH1-99" value="Aplicaciones" style="swimlane;fontStyle=1;align=center;verticalAlign=top;childLayout=stackLayout;horizontal=1;startSize=26;horizontalStack=0;resizeParent=1;resizeParentMax=0;resizeLast=0;collapsible=1;marginBottom=0;whiteSpace=wrap;html=1;" vertex="1" parent="1">
          <mxGeometry x="1350" y="944" width="160" height="110" as="geometry" />
        </mxCell>
        <mxCell id="R0AZBqTg8Ke5Ymap6KH1-100" value="+ Lista_aplicaciones" style="text;strokeColor=none;fillColor=none;align=left;verticalAlign=top;spacingLeft=4;spacingRight=4;overflow=hidden;rotatable=0;points=[[0,0.5],[1,0.5]];portConstraint=eastwest;whiteSpace=wrap;html=1;" vertex="1" parent="R0AZBqTg8Ke5Ymap6KH1-99">
          <mxGeometry y="26" width="160" height="34" as="geometry" />
        </mxCell>
        <mxCell id="R0AZBqTg8Ke5Ymap6KH1-101" value="" style="line;strokeWidth=1;fillColor=none;align=left;verticalAlign=middle;spacingTop=-1;spacingLeft=3;spacingRight=3;rotatable=0;labelPosition=right;points=[];portConstraint=eastwest;strokeColor=inherit;" vertex="1" parent="R0AZBqTg8Ke5Ymap6KH1-99">
          <mxGeometry y="60" width="160" height="8" as="geometry" />
        </mxCell>
        <mxCell id="R0AZBqTg8Ke5Ymap6KH1-102" value="+I nstalar_app()&lt;div&gt;+ Eliminar_app()&lt;/div&gt;" style="text;strokeColor=none;fillColor=none;align=left;verticalAlign=top;spacingLeft=4;spacingRight=4;overflow=hidden;rotatable=0;points=[[0,0.5],[1,0.5]];portConstraint=eastwest;whiteSpace=wrap;html=1;" vertex="1" parent="R0AZBqTg8Ke5Ymap6KH1-99">
          <mxGeometry y="68" width="160" height="42" as="geometry" />
        </mxCell>
        <mxCell id="R0AZBqTg8Ke5Ymap6KH1-104" value="Chat" style="swimlane;fontStyle=1;align=center;verticalAlign=top;childLayout=stackLayout;horizontal=1;startSize=26;horizontalStack=0;resizeParent=1;resizeParentMax=0;resizeLast=0;collapsible=1;marginBottom=0;whiteSpace=wrap;html=1;" vertex="1" parent="1">
          <mxGeometry x="1350" y="1074" width="160" height="110" as="geometry" />
        </mxCell>
        <mxCell id="R0AZBqTg8Ke5Ymap6KH1-105" value="+ Mensajes" style="text;strokeColor=none;fillColor=none;align=left;verticalAlign=top;spacingLeft=4;spacingRight=4;overflow=hidden;rotatable=0;points=[[0,0.5],[1,0.5]];portConstraint=eastwest;whiteSpace=wrap;html=1;" vertex="1" parent="R0AZBqTg8Ke5Ymap6KH1-104">
          <mxGeometry y="26" width="160" height="34" as="geometry" />
        </mxCell>
        <mxCell id="R0AZBqTg8Ke5Ymap6KH1-106" value="" style="line;strokeWidth=1;fillColor=none;align=left;verticalAlign=middle;spacingTop=-1;spacingLeft=3;spacingRight=3;rotatable=0;labelPosition=right;points=[];portConstraint=eastwest;strokeColor=inherit;" vertex="1" parent="R0AZBqTg8Ke5Ymap6KH1-104">
          <mxGeometry y="60" width="160" height="8" as="geometry" />
        </mxCell>
        <mxCell id="R0AZBqTg8Ke5Ymap6KH1-107" value="+ Enviar_mensaje()&lt;div&gt;+ Borrar_mensaje()&lt;/div&gt;" style="text;strokeColor=none;fillColor=none;align=left;verticalAlign=top;spacingLeft=4;spacingRight=4;overflow=hidden;rotatable=0;points=[[0,0.5],[1,0.5]];portConstraint=eastwest;whiteSpace=wrap;html=1;" vertex="1" parent="R0AZBqTg8Ke5Ymap6KH1-104">
          <mxGeometry y="68" width="160" height="42" as="geometry" />
        </mxCell>
        <mxCell id="R0AZBqTg8Ke5Ymap6KH1-108" value="Bateria" style="swimlane;fontStyle=1;align=center;verticalAlign=top;childLayout=stackLayout;horizontal=1;startSize=26;horizontalStack=0;resizeParent=1;resizeParentMax=0;resizeLast=0;collapsible=1;marginBottom=0;whiteSpace=wrap;html=1;" vertex="1" parent="1">
          <mxGeometry x="1350" y="1204" width="160" height="120" as="geometry" />
        </mxCell>
        <mxCell id="R0AZBqTg8Ke5Ymap6KH1-109" value="+ Carga&lt;div&gt;+ Tipo_cargador&lt;/div&gt;" style="text;strokeColor=none;fillColor=none;align=left;verticalAlign=top;spacingLeft=4;spacingRight=4;overflow=hidden;rotatable=0;points=[[0,0.5],[1,0.5]];portConstraint=eastwest;whiteSpace=wrap;html=1;" vertex="1" parent="R0AZBqTg8Ke5Ymap6KH1-108">
          <mxGeometry y="26" width="160" height="44" as="geometry" />
        </mxCell>
        <mxCell id="R0AZBqTg8Ke5Ymap6KH1-110" value="" style="line;strokeWidth=1;fillColor=none;align=left;verticalAlign=middle;spacingTop=-1;spacingLeft=3;spacingRight=3;rotatable=0;labelPosition=right;points=[];portConstraint=eastwest;strokeColor=inherit;" vertex="1" parent="R0AZBqTg8Ke5Ymap6KH1-108">
          <mxGeometry y="70" width="160" height="8" as="geometry" />
        </mxCell>
        <mxCell id="R0AZBqTg8Ke5Ymap6KH1-111" value="+ Cargar()&lt;div&gt;+ Descargar()&lt;/div&gt;" style="text;strokeColor=none;fillColor=none;align=left;verticalAlign=top;spacingLeft=4;spacingRight=4;overflow=hidden;rotatable=0;points=[[0,0.5],[1,0.5]];portConstraint=eastwest;whiteSpace=wrap;html=1;" vertex="1" parent="R0AZBqTg8Ke5Ymap6KH1-108">
          <mxGeometry y="78" width="160" height="42" as="geometry" />
        </mxCell>
        <mxCell id="R0AZBqTg8Ke5Ymap6KH1-112" value="SIM" style="swimlane;fontStyle=1;align=center;verticalAlign=top;childLayout=stackLayout;horizontal=1;startSize=26;horizontalStack=0;resizeParent=1;resizeParentMax=0;resizeLast=0;collapsible=1;marginBottom=0;whiteSpace=wrap;html=1;" vertex="1" parent="1">
          <mxGeometry x="760" y="839" width="160" height="86" as="geometry" />
        </mxCell>
        <mxCell id="R0AZBqTg8Ke5Ymap6KH1-113" value="+ Numero" style="text;strokeColor=none;fillColor=none;align=left;verticalAlign=top;spacingLeft=4;spacingRight=4;overflow=hidden;rotatable=0;points=[[0,0.5],[1,0.5]];portConstraint=eastwest;whiteSpace=wrap;html=1;" vertex="1" parent="R0AZBqTg8Ke5Ymap6KH1-112">
          <mxGeometry y="26" width="160" height="26" as="geometry" />
        </mxCell>
        <mxCell id="R0AZBqTg8Ke5Ymap6KH1-114" value="" style="line;strokeWidth=1;fillColor=none;align=left;verticalAlign=middle;spacingTop=-1;spacingLeft=3;spacingRight=3;rotatable=0;labelPosition=right;points=[];portConstraint=eastwest;strokeColor=inherit;" vertex="1" parent="R0AZBqTg8Ke5Ymap6KH1-112">
          <mxGeometry y="52" width="160" height="8" as="geometry" />
        </mxCell>
        <mxCell id="R0AZBqTg8Ke5Ymap6KH1-115" value="+ Llamar()" style="text;strokeColor=none;fillColor=none;align=left;verticalAlign=top;spacingLeft=4;spacingRight=4;overflow=hidden;rotatable=0;points=[[0,0.5],[1,0.5]];portConstraint=eastwest;whiteSpace=wrap;html=1;" vertex="1" parent="R0AZBqTg8Ke5Ymap6KH1-112">
          <mxGeometry y="60" width="160" height="26" as="geometry" />
        </mxCell>
        <mxCell id="R0AZBqTg8Ke5Ymap6KH1-116" value="" style="endArrow=diamondThin;endFill=0;endSize=24;html=1;rounded=0;entryX=0;entryY=0.5;entryDx=0;entryDy=0;" edge="1" parent="1" target="R0AZBqTg8Ke5Ymap6KH1-86">
          <mxGeometry width="160" relative="1" as="geometry">
            <mxPoint x="960" y="993" as="sourcePoint" />
            <mxPoint x="1140" y="940" as="targetPoint" />
          </mxGeometry>
        </mxCell>
        <mxCell id="R0AZBqTg8Ke5Ymap6KH1-117" value="Tarjeta memoria" style="swimlane;fontStyle=1;align=center;verticalAlign=top;childLayout=stackLayout;horizontal=1;startSize=26;horizontalStack=0;resizeParent=1;resizeParentMax=0;resizeLast=0;collapsible=1;marginBottom=0;whiteSpace=wrap;html=1;" vertex="1" parent="1">
          <mxGeometry x="760" y="944" width="160" height="86" as="geometry" />
        </mxCell>
        <mxCell id="R0AZBqTg8Ke5Ymap6KH1-118" value="+ Capacidad" style="text;strokeColor=none;fillColor=none;align=left;verticalAlign=top;spacingLeft=4;spacingRight=4;overflow=hidden;rotatable=0;points=[[0,0.5],[1,0.5]];portConstraint=eastwest;whiteSpace=wrap;html=1;" vertex="1" parent="R0AZBqTg8Ke5Ymap6KH1-117">
          <mxGeometry y="26" width="160" height="26" as="geometry" />
        </mxCell>
        <mxCell id="R0AZBqTg8Ke5Ymap6KH1-119" value="" style="line;strokeWidth=1;fillColor=none;align=left;verticalAlign=middle;spacingTop=-1;spacingLeft=3;spacingRight=3;rotatable=0;labelPosition=right;points=[];portConstraint=eastwest;strokeColor=inherit;" vertex="1" parent="R0AZBqTg8Ke5Ymap6KH1-117">
          <mxGeometry y="52" width="160" height="8" as="geometry" />
        </mxCell>
        <mxCell id="R0AZBqTg8Ke5Ymap6KH1-120" value="+ Leer_datos()" style="text;strokeColor=none;fillColor=none;align=left;verticalAlign=top;spacingLeft=4;spacingRight=4;overflow=hidden;rotatable=0;points=[[0,0.5],[1,0.5]];portConstraint=eastwest;whiteSpace=wrap;html=1;" vertex="1" parent="R0AZBqTg8Ke5Ymap6KH1-117">
          <mxGeometry y="60" width="160" height="26" as="geometry" />
        </mxCell>
        <mxCell id="R0AZBqTg8Ke5Ymap6KH1-121" value="Cargador - Cable" style="swimlane;fontStyle=1;align=center;verticalAlign=top;childLayout=stackLayout;horizontal=1;startSize=26;horizontalStack=0;resizeParent=1;resizeParentMax=0;resizeLast=0;collapsible=1;marginBottom=0;whiteSpace=wrap;html=1;" vertex="1" parent="1">
          <mxGeometry x="760" y="1050" width="160" height="86" as="geometry" />
        </mxCell>
        <mxCell id="R0AZBqTg8Ke5Ymap6KH1-122" value="+ Tipo_conexion" style="text;strokeColor=none;fillColor=none;align=left;verticalAlign=top;spacingLeft=4;spacingRight=4;overflow=hidden;rotatable=0;points=[[0,0.5],[1,0.5]];portConstraint=eastwest;whiteSpace=wrap;html=1;" vertex="1" parent="R0AZBqTg8Ke5Ymap6KH1-121">
          <mxGeometry y="26" width="160" height="26" as="geometry" />
        </mxCell>
        <mxCell id="R0AZBqTg8Ke5Ymap6KH1-123" value="" style="line;strokeWidth=1;fillColor=none;align=left;verticalAlign=middle;spacingTop=-1;spacingLeft=3;spacingRight=3;rotatable=0;labelPosition=right;points=[];portConstraint=eastwest;strokeColor=inherit;" vertex="1" parent="R0AZBqTg8Ke5Ymap6KH1-121">
          <mxGeometry y="52" width="160" height="8" as="geometry" />
        </mxCell>
        <mxCell id="R0AZBqTg8Ke5Ymap6KH1-124" value="+ Cargar_bateria()" style="text;strokeColor=none;fillColor=none;align=left;verticalAlign=top;spacingLeft=4;spacingRight=4;overflow=hidden;rotatable=0;points=[[0,0.5],[1,0.5]];portConstraint=eastwest;whiteSpace=wrap;html=1;" vertex="1" parent="R0AZBqTg8Ke5Ymap6KH1-121">
          <mxGeometry y="60" width="160" height="26" as="geometry" />
        </mxCell>
        <mxCell id="R0AZBqTg8Ke5Ymap6KH1-125" value="" style="text;strokeColor=none;fillColor=none;align=left;verticalAlign=middle;spacingTop=-1;spacingLeft=4;spacingRight=4;rotatable=0;labelPosition=right;points=[];portConstraint=eastwest;" vertex="1" parent="1">
          <mxGeometry x="1440" y="1003" width="20" height="14" as="geometry" />
        </mxCell>
        <mxCell id="R0AZBqTg8Ke5Ymap6KH1-128" value="" style="endArrow=none;html=1;rounded=0;" edge="1" parent="1">
          <mxGeometry width="50" height="50" relative="1" as="geometry">
            <mxPoint x="1310" y="1280" as="sourcePoint" />
            <mxPoint x="1310" y="720" as="targetPoint" />
          </mxGeometry>
        </mxCell>
        <mxCell id="R0AZBqTg8Ke5Ymap6KH1-129" value="" style="endArrow=none;html=1;rounded=0;" edge="1" parent="1">
          <mxGeometry width="50" height="50" relative="1" as="geometry">
            <mxPoint x="1310" y="720" as="sourcePoint" />
            <mxPoint x="1350" y="720" as="targetPoint" />
          </mxGeometry>
        </mxCell>
        <mxCell id="R0AZBqTg8Ke5Ymap6KH1-130" value="" style="endArrow=none;html=1;rounded=0;" edge="1" parent="1">
          <mxGeometry width="50" height="50" relative="1" as="geometry">
            <mxPoint x="1311" y="1280" as="sourcePoint" />
            <mxPoint x="1351" y="1280" as="targetPoint" />
          </mxGeometry>
        </mxCell>
        <mxCell id="R0AZBqTg8Ke5Ymap6KH1-131" value="" style="endArrow=none;html=1;rounded=0;" edge="1" parent="1">
          <mxGeometry width="50" height="50" relative="1" as="geometry">
            <mxPoint x="1310" y="1120" as="sourcePoint" />
            <mxPoint x="1350" y="1120" as="targetPoint" />
          </mxGeometry>
        </mxCell>
        <mxCell id="R0AZBqTg8Ke5Ymap6KH1-132" value="" style="endArrow=none;html=1;rounded=0;" edge="1" parent="1">
          <mxGeometry width="50" height="50" relative="1" as="geometry">
            <mxPoint x="1310" y="993" as="sourcePoint" />
            <mxPoint x="1350" y="993" as="targetPoint" />
          </mxGeometry>
        </mxCell>
        <mxCell id="R0AZBqTg8Ke5Ymap6KH1-133" value="" style="endArrow=none;html=1;rounded=0;" edge="1" parent="1">
          <mxGeometry width="50" height="50" relative="1" as="geometry">
            <mxPoint x="1310" y="880" as="sourcePoint" />
            <mxPoint x="1350" y="880" as="targetPoint" />
          </mxGeometry>
        </mxCell>
        <mxCell id="R0AZBqTg8Ke5Ymap6KH1-134" value="" style="endArrow=none;html=1;rounded=0;" edge="1" parent="1">
          <mxGeometry width="50" height="50" relative="1" as="geometry">
            <mxPoint x="960" y="1110" as="sourcePoint" />
            <mxPoint x="960" y="880" as="targetPoint" />
          </mxGeometry>
        </mxCell>
        <mxCell id="R0AZBqTg8Ke5Ymap6KH1-135" value="" style="endArrow=none;html=1;rounded=0;" edge="1" parent="1">
          <mxGeometry width="50" height="50" relative="1" as="geometry">
            <mxPoint x="920" y="880" as="sourcePoint" />
            <mxPoint x="960" y="880" as="targetPoint" />
          </mxGeometry>
        </mxCell>
        <mxCell id="R0AZBqTg8Ke5Ymap6KH1-136" value="" style="endArrow=none;html=1;rounded=0;" edge="1" parent="1">
          <mxGeometry width="50" height="50" relative="1" as="geometry">
            <mxPoint x="920" y="993" as="sourcePoint" />
            <mxPoint x="960" y="993" as="targetPoint" />
          </mxGeometry>
        </mxCell>
        <mxCell id="R0AZBqTg8Ke5Ymap6KH1-137" value="" style="endArrow=none;html=1;rounded=0;" edge="1" parent="1">
          <mxGeometry width="50" height="50" relative="1" as="geometry">
            <mxPoint x="920" y="1110" as="sourcePoint" />
            <mxPoint x="960" y="1110" as="targetPoint" />
          </mxGeometry>
        </mxCell>
        <mxCell id="R0AZBqTg8Ke5Ymap6KH1-138" value="Bioparc" style="swimlane;fontStyle=1;align=center;verticalAlign=top;childLayout=stackLayout;horizontal=1;startSize=26;horizontalStack=0;resizeParent=1;resizeParentMax=0;resizeLast=0;collapsible=1;marginBottom=0;whiteSpace=wrap;html=1;" vertex="1" parent="1">
          <mxGeometry x="1280" y="1450" width="160" height="140" as="geometry" />
        </mxCell>
        <mxCell id="R0AZBqTg8Ke5Ymap6KH1-139" value="+ Nombre_fiscal&lt;div&gt;+ Historia&lt;/div&gt;" style="text;strokeColor=none;fillColor=none;align=left;verticalAlign=top;spacingLeft=4;spacingRight=4;overflow=hidden;rotatable=0;points=[[0,0.5],[1,0.5]];portConstraint=eastwest;whiteSpace=wrap;html=1;" vertex="1" parent="R0AZBqTg8Ke5Ymap6KH1-138">
          <mxGeometry y="26" width="160" height="44" as="geometry" />
        </mxCell>
        <mxCell id="R0AZBqTg8Ke5Ymap6KH1-140" value="" style="line;strokeWidth=1;fillColor=none;align=left;verticalAlign=middle;spacingTop=-1;spacingLeft=3;spacingRight=3;rotatable=0;labelPosition=right;points=[];portConstraint=eastwest;strokeColor=inherit;" vertex="1" parent="R0AZBqTg8Ke5Ymap6KH1-138">
          <mxGeometry y="70" width="160" height="8" as="geometry" />
        </mxCell>
        <mxCell id="R0AZBqTg8Ke5Ymap6KH1-141" value="+ Agregar_habitat()&lt;div&gt;+ Agregar_animal()&lt;/div&gt;&lt;div&gt;+ Agregar_cuidador()&lt;/div&gt;" style="text;strokeColor=none;fillColor=none;align=left;verticalAlign=top;spacingLeft=4;spacingRight=4;overflow=hidden;rotatable=0;points=[[0,0.5],[1,0.5]];portConstraint=eastwest;whiteSpace=wrap;html=1;" vertex="1" parent="R0AZBqTg8Ke5Ymap6KH1-138">
          <mxGeometry y="78" width="160" height="62" as="geometry" />
        </mxCell>
        <mxCell id="R0AZBqTg8Ke5Ymap6KH1-142" value="Habitat" style="swimlane;fontStyle=1;align=center;verticalAlign=top;childLayout=stackLayout;horizontal=1;startSize=26;horizontalStack=0;resizeParent=1;resizeParentMax=0;resizeLast=0;collapsible=1;marginBottom=0;whiteSpace=wrap;html=1;" vertex="1" parent="1">
          <mxGeometry x="1520" y="1440" width="160" height="140" as="geometry" />
        </mxCell>
        <mxCell id="R0AZBqTg8Ke5Ymap6KH1-143" value="+ Nomnbre&lt;div&gt;+ Clima&lt;/div&gt;&lt;div&gt;+ Tipo_vegetacion&lt;/div&gt;&lt;div&gt;+ Tamaño&lt;/div&gt;" style="text;strokeColor=none;fillColor=none;align=left;verticalAlign=top;spacingLeft=4;spacingRight=4;overflow=hidden;rotatable=0;points=[[0,0.5],[1,0.5]];portConstraint=eastwest;whiteSpace=wrap;html=1;" vertex="1" parent="R0AZBqTg8Ke5Ymap6KH1-142">
          <mxGeometry y="26" width="160" height="64" as="geometry" />
        </mxCell>
        <mxCell id="R0AZBqTg8Ke5Ymap6KH1-144" value="" style="line;strokeWidth=1;fillColor=none;align=left;verticalAlign=middle;spacingTop=-1;spacingLeft=3;spacingRight=3;rotatable=0;labelPosition=right;points=[];portConstraint=eastwest;strokeColor=inherit;" vertex="1" parent="R0AZBqTg8Ke5Ymap6KH1-142">
          <mxGeometry y="90" width="160" height="8" as="geometry" />
        </mxCell>
        <mxCell id="R0AZBqTg8Ke5Ymap6KH1-145" value="+ Limpiar()&lt;div&gt;+ Estado()&lt;/div&gt;" style="text;strokeColor=none;fillColor=none;align=left;verticalAlign=top;spacingLeft=4;spacingRight=4;overflow=hidden;rotatable=0;points=[[0,0.5],[1,0.5]];portConstraint=eastwest;whiteSpace=wrap;html=1;" vertex="1" parent="R0AZBqTg8Ke5Ymap6KH1-142">
          <mxGeometry y="98" width="160" height="42" as="geometry" />
        </mxCell>
        <mxCell id="R0AZBqTg8Ke5Ymap6KH1-173" value="" style="edgeStyle=orthogonalEdgeStyle;rounded=0;orthogonalLoop=1;jettySize=auto;html=1;entryX=0.5;entryY=1.016;entryDx=0;entryDy=0;entryPerimeter=0;" edge="1" parent="1" source="R0AZBqTg8Ke5Ymap6KH1-147" target="R0AZBqTg8Ke5Ymap6KH1-141">
          <mxGeometry relative="1" as="geometry" />
        </mxCell>
        <mxCell id="R0AZBqTg8Ke5Ymap6KH1-147" value="Animal" style="swimlane;fontStyle=1;align=center;verticalAlign=top;childLayout=stackLayout;horizontal=1;startSize=26;horizontalStack=0;resizeParent=1;resizeParentMax=0;resizeLast=0;collapsible=1;marginBottom=0;whiteSpace=wrap;html=1;" vertex="1" parent="1">
          <mxGeometry x="1280" y="1670" width="160" height="170" as="geometry" />
        </mxCell>
        <mxCell id="R0AZBqTg8Ke5Ymap6KH1-148" value="+ ID_Animal&lt;div&gt;+ Nombre&lt;/div&gt;&lt;div&gt;+ Peso&lt;/div&gt;&lt;div&gt;+ Estado&lt;/div&gt;&lt;div&gt;+ Fecha_ingreso&lt;/div&gt;" style="text;strokeColor=none;fillColor=none;align=left;verticalAlign=top;spacingLeft=4;spacingRight=4;overflow=hidden;rotatable=0;points=[[0,0.5],[1,0.5]];portConstraint=eastwest;whiteSpace=wrap;html=1;" vertex="1" parent="R0AZBqTg8Ke5Ymap6KH1-147">
          <mxGeometry y="26" width="160" height="84" as="geometry" />
        </mxCell>
        <mxCell id="R0AZBqTg8Ke5Ymap6KH1-149" value="" style="line;strokeWidth=1;fillColor=none;align=left;verticalAlign=middle;spacingTop=-1;spacingLeft=3;spacingRight=3;rotatable=0;labelPosition=right;points=[];portConstraint=eastwest;strokeColor=inherit;" vertex="1" parent="R0AZBqTg8Ke5Ymap6KH1-147">
          <mxGeometry y="110" width="160" height="8" as="geometry" />
        </mxCell>
        <mxCell id="R0AZBqTg8Ke5Ymap6KH1-150" value="+ Alimentar()&lt;div&gt;+ Revisar_salud()&lt;/div&gt;&lt;div&gt;+ Mover_habitat&lt;/div&gt;" style="text;strokeColor=none;fillColor=none;align=left;verticalAlign=top;spacingLeft=4;spacingRight=4;overflow=hidden;rotatable=0;points=[[0,0.5],[1,0.5]];portConstraint=eastwest;whiteSpace=wrap;html=1;" vertex="1" parent="R0AZBqTg8Ke5Ymap6KH1-147">
          <mxGeometry y="118" width="160" height="52" as="geometry" />
        </mxCell>
        <mxCell id="R0AZBqTg8Ke5Ymap6KH1-151" value="" style="endArrow=block;endSize=15;endFill=0;html=1;rounded=0;entryX=0.5;entryY=1;entryDx=0;entryDy=0;startSize=6;" edge="1" parent="1">
          <mxGeometry width="160" relative="1" as="geometry">
            <mxPoint x="1360" y="1900" as="sourcePoint" />
            <mxPoint x="1359.5" y="1840" as="targetPoint" />
          </mxGeometry>
        </mxCell>
        <mxCell id="R0AZBqTg8Ke5Ymap6KH1-152" value="Mamifero" style="swimlane;fontStyle=1;align=center;verticalAlign=top;childLayout=stackLayout;horizontal=1;startSize=26;horizontalStack=0;resizeParent=1;resizeParentMax=0;resizeLast=0;collapsible=1;marginBottom=0;whiteSpace=wrap;html=1;" vertex="1" parent="1">
          <mxGeometry x="1024.5" y="1930" width="160" height="104" as="geometry" />
        </mxCell>
        <mxCell id="R0AZBqTg8Ke5Ymap6KH1-153" value="+ Tipo_pelo&lt;div&gt;+ Gestacion&lt;/div&gt;" style="text;strokeColor=none;fillColor=none;align=left;verticalAlign=top;spacingLeft=4;spacingRight=4;overflow=hidden;rotatable=0;points=[[0,0.5],[1,0.5]];portConstraint=eastwest;whiteSpace=wrap;html=1;" vertex="1" parent="R0AZBqTg8Ke5Ymap6KH1-152">
          <mxGeometry y="26" width="160" height="44" as="geometry" />
        </mxCell>
        <mxCell id="R0AZBqTg8Ke5Ymap6KH1-154" value="" style="line;strokeWidth=1;fillColor=none;align=left;verticalAlign=middle;spacingTop=-1;spacingLeft=3;spacingRight=3;rotatable=0;labelPosition=right;points=[];portConstraint=eastwest;strokeColor=inherit;" vertex="1" parent="R0AZBqTg8Ke5Ymap6KH1-152">
          <mxGeometry y="70" width="160" height="8" as="geometry" />
        </mxCell>
        <mxCell id="R0AZBqTg8Ke5Ymap6KH1-155" value="+ Amamantar()" style="text;strokeColor=none;fillColor=none;align=left;verticalAlign=top;spacingLeft=4;spacingRight=4;overflow=hidden;rotatable=0;points=[[0,0.5],[1,0.5]];portConstraint=eastwest;whiteSpace=wrap;html=1;" vertex="1" parent="R0AZBqTg8Ke5Ymap6KH1-152">
          <mxGeometry y="78" width="160" height="26" as="geometry" />
        </mxCell>
        <mxCell id="R0AZBqTg8Ke5Ymap6KH1-156" value="Ave" style="swimlane;fontStyle=1;align=center;verticalAlign=top;childLayout=stackLayout;horizontal=1;startSize=26;horizontalStack=0;resizeParent=1;resizeParentMax=0;resizeLast=0;collapsible=1;marginBottom=0;whiteSpace=wrap;html=1;" vertex="1" parent="1">
          <mxGeometry x="1195.5" y="1930" width="160" height="120" as="geometry" />
        </mxCell>
        <mxCell id="R0AZBqTg8Ke5Ymap6KH1-157" value="+ Envergadura_alas&lt;div&gt;+ Puede volar&lt;/div&gt;" style="text;strokeColor=none;fillColor=none;align=left;verticalAlign=top;spacingLeft=4;spacingRight=4;overflow=hidden;rotatable=0;points=[[0,0.5],[1,0.5]];portConstraint=eastwest;whiteSpace=wrap;html=1;" vertex="1" parent="R0AZBqTg8Ke5Ymap6KH1-156">
          <mxGeometry y="26" width="160" height="44" as="geometry" />
        </mxCell>
        <mxCell id="R0AZBqTg8Ke5Ymap6KH1-158" value="" style="line;strokeWidth=1;fillColor=none;align=left;verticalAlign=middle;spacingTop=-1;spacingLeft=3;spacingRight=3;rotatable=0;labelPosition=right;points=[];portConstraint=eastwest;strokeColor=inherit;" vertex="1" parent="R0AZBqTg8Ke5Ymap6KH1-156">
          <mxGeometry y="70" width="160" height="8" as="geometry" />
        </mxCell>
        <mxCell id="R0AZBqTg8Ke5Ymap6KH1-159" value="+ Volar()&lt;div&gt;+ Poner_huevos()&lt;/div&gt;" style="text;strokeColor=none;fillColor=none;align=left;verticalAlign=top;spacingLeft=4;spacingRight=4;overflow=hidden;rotatable=0;points=[[0,0.5],[1,0.5]];portConstraint=eastwest;whiteSpace=wrap;html=1;" vertex="1" parent="R0AZBqTg8Ke5Ymap6KH1-156">
          <mxGeometry y="78" width="160" height="42" as="geometry" />
        </mxCell>
        <mxCell id="R0AZBqTg8Ke5Ymap6KH1-160" value="Reptil" style="swimlane;fontStyle=1;align=center;verticalAlign=top;childLayout=stackLayout;horizontal=1;startSize=26;horizontalStack=0;resizeParent=1;resizeParentMax=0;resizeLast=0;collapsible=1;marginBottom=0;whiteSpace=wrap;html=1;" vertex="1" parent="1">
          <mxGeometry x="1365.5" y="1930" width="160" height="104" as="geometry" />
        </mxCell>
        <mxCell id="R0AZBqTg8Ke5Ymap6KH1-161" value="+ Tipo_escama&lt;div&gt;+ Venenoso&lt;/div&gt;" style="text;strokeColor=none;fillColor=none;align=left;verticalAlign=top;spacingLeft=4;spacingRight=4;overflow=hidden;rotatable=0;points=[[0,0.5],[1,0.5]];portConstraint=eastwest;whiteSpace=wrap;html=1;" vertex="1" parent="R0AZBqTg8Ke5Ymap6KH1-160">
          <mxGeometry y="26" width="160" height="44" as="geometry" />
        </mxCell>
        <mxCell id="R0AZBqTg8Ke5Ymap6KH1-162" value="" style="line;strokeWidth=1;fillColor=none;align=left;verticalAlign=middle;spacingTop=-1;spacingLeft=3;spacingRight=3;rotatable=0;labelPosition=right;points=[];portConstraint=eastwest;strokeColor=inherit;" vertex="1" parent="R0AZBqTg8Ke5Ymap6KH1-160">
          <mxGeometry y="70" width="160" height="8" as="geometry" />
        </mxCell>
        <mxCell id="R0AZBqTg8Ke5Ymap6KH1-163" value="+ Cambiar_piel()" style="text;strokeColor=none;fillColor=none;align=left;verticalAlign=top;spacingLeft=4;spacingRight=4;overflow=hidden;rotatable=0;points=[[0,0.5],[1,0.5]];portConstraint=eastwest;whiteSpace=wrap;html=1;" vertex="1" parent="R0AZBqTg8Ke5Ymap6KH1-160">
          <mxGeometry y="78" width="160" height="26" as="geometry" />
        </mxCell>
        <mxCell id="R0AZBqTg8Ke5Ymap6KH1-164" value="Anfibio" style="swimlane;fontStyle=1;align=center;verticalAlign=top;childLayout=stackLayout;horizontal=1;startSize=26;horizontalStack=0;resizeParent=1;resizeParentMax=0;resizeLast=0;collapsible=1;marginBottom=0;whiteSpace=wrap;html=1;" vertex="1" parent="1">
          <mxGeometry x="1535.5" y="1930" width="160" height="110" as="geometry" />
        </mxCell>
        <mxCell id="R0AZBqTg8Ke5Ymap6KH1-165" value="+ Tipo_piel&lt;div&gt;+ Requiere_agua&lt;/div&gt;" style="text;strokeColor=none;fillColor=none;align=left;verticalAlign=top;spacingLeft=4;spacingRight=4;overflow=hidden;rotatable=0;points=[[0,0.5],[1,0.5]];portConstraint=eastwest;whiteSpace=wrap;html=1;" vertex="1" parent="R0AZBqTg8Ke5Ymap6KH1-164">
          <mxGeometry y="26" width="160" height="44" as="geometry" />
        </mxCell>
        <mxCell id="R0AZBqTg8Ke5Ymap6KH1-166" value="" style="line;strokeWidth=1;fillColor=none;align=left;verticalAlign=middle;spacingTop=-1;spacingLeft=3;spacingRight=3;rotatable=0;labelPosition=right;points=[];portConstraint=eastwest;strokeColor=inherit;" vertex="1" parent="R0AZBqTg8Ke5Ymap6KH1-164">
          <mxGeometry y="70" width="160" height="8" as="geometry" />
        </mxCell>
        <mxCell id="R0AZBqTg8Ke5Ymap6KH1-167" value="+ Mudar_piel()" style="text;strokeColor=none;fillColor=none;align=left;verticalAlign=top;spacingLeft=4;spacingRight=4;overflow=hidden;rotatable=0;points=[[0,0.5],[1,0.5]];portConstraint=eastwest;whiteSpace=wrap;html=1;" vertex="1" parent="R0AZBqTg8Ke5Ymap6KH1-164">
          <mxGeometry y="78" width="160" height="32" as="geometry" />
        </mxCell>
        <mxCell id="R0AZBqTg8Ke5Ymap6KH1-168" value="" style="endArrow=none;html=1;rounded=0;" edge="1" parent="1">
          <mxGeometry width="50" height="50" relative="1" as="geometry">
            <mxPoint x="1110" y="1900" as="sourcePoint" />
            <mxPoint x="1630" y="1900" as="targetPoint" />
          </mxGeometry>
        </mxCell>
        <mxCell id="R0AZBqTg8Ke5Ymap6KH1-169" value="" style="endArrow=none;html=1;rounded=0;exitX=0.534;exitY=0;exitDx=0;exitDy=0;exitPerimeter=0;" edge="1" parent="1" source="R0AZBqTg8Ke5Ymap6KH1-152">
          <mxGeometry width="50" height="50" relative="1" as="geometry">
            <mxPoint x="1115.5" y="1930" as="sourcePoint" />
            <mxPoint x="1110" y="1900" as="targetPoint" />
          </mxGeometry>
        </mxCell>
        <mxCell id="R0AZBqTg8Ke5Ymap6KH1-170" value="" style="endArrow=none;html=1;rounded=0;exitX=0.534;exitY=0;exitDx=0;exitDy=0;exitPerimeter=0;" edge="1" parent="1">
          <mxGeometry width="50" height="50" relative="1" as="geometry">
            <mxPoint x="1270" y="1930" as="sourcePoint" />
            <mxPoint x="1270" y="1900" as="targetPoint" />
          </mxGeometry>
        </mxCell>
        <mxCell id="R0AZBqTg8Ke5Ymap6KH1-171" value="" style="endArrow=none;html=1;rounded=0;exitX=0.534;exitY=0;exitDx=0;exitDy=0;exitPerimeter=0;" edge="1" parent="1">
          <mxGeometry width="50" height="50" relative="1" as="geometry">
            <mxPoint x="1430" y="1930" as="sourcePoint" />
            <mxPoint x="1430" y="1900" as="targetPoint" />
          </mxGeometry>
        </mxCell>
        <mxCell id="R0AZBqTg8Ke5Ymap6KH1-172" value="" style="endArrow=none;html=1;rounded=0;exitX=0.534;exitY=0;exitDx=0;exitDy=0;exitPerimeter=0;" edge="1" parent="1">
          <mxGeometry width="50" height="50" relative="1" as="geometry">
            <mxPoint x="1630" y="1930" as="sourcePoint" />
            <mxPoint x="1630" y="1900" as="targetPoint" />
          </mxGeometry>
        </mxCell>
        <mxCell id="R0AZBqTg8Ke5Ymap6KH1-174" value="Cuidador" style="swimlane;fontStyle=1;align=center;verticalAlign=top;childLayout=stackLayout;horizontal=1;startSize=26;horizontalStack=0;resizeParent=1;resizeParentMax=0;resizeLast=0;collapsible=1;marginBottom=0;whiteSpace=wrap;html=1;" vertex="1" parent="1">
          <mxGeometry x="1520" y="1640" width="160" height="160" as="geometry" />
        </mxCell>
        <mxCell id="R0AZBqTg8Ke5Ymap6KH1-175" value="+ ID_Cuidador&lt;div&gt;+ Nombre&lt;/div&gt;&lt;div&gt;+ Especialidad&lt;/div&gt;&lt;div&gt;+ Años_experiencia&lt;/div&gt;" style="text;strokeColor=none;fillColor=none;align=left;verticalAlign=top;spacingLeft=4;spacingRight=4;overflow=hidden;rotatable=0;points=[[0,0.5],[1,0.5]];portConstraint=eastwest;whiteSpace=wrap;html=1;" vertex="1" parent="R0AZBqTg8Ke5Ymap6KH1-174">
          <mxGeometry y="26" width="160" height="74" as="geometry" />
        </mxCell>
        <mxCell id="R0AZBqTg8Ke5Ymap6KH1-176" value="" style="line;strokeWidth=1;fillColor=none;align=left;verticalAlign=middle;spacingTop=-1;spacingLeft=3;spacingRight=3;rotatable=0;labelPosition=right;points=[];portConstraint=eastwest;strokeColor=inherit;" vertex="1" parent="R0AZBqTg8Ke5Ymap6KH1-174">
          <mxGeometry y="100" width="160" height="8" as="geometry" />
        </mxCell>
        <mxCell id="R0AZBqTg8Ke5Ymap6KH1-177" value="+ Alimentar_animales ()&lt;div&gt;+ Revisar_animales()&lt;/div&gt;&lt;div&gt;+ Mantener_habitats()&lt;/div&gt;" style="text;strokeColor=none;fillColor=none;align=left;verticalAlign=top;spacingLeft=4;spacingRight=4;overflow=hidden;rotatable=0;points=[[0,0.5],[1,0.5]];portConstraint=eastwest;whiteSpace=wrap;html=1;" vertex="1" parent="R0AZBqTg8Ke5Ymap6KH1-174">
          <mxGeometry y="108" width="160" height="52" as="geometry" />
        </mxCell>
        <mxCell id="R0AZBqTg8Ke5Ymap6KH1-178" value="" style="endArrow=diamondThin;endFill=1;endSize=24;html=1;rounded=0;" edge="1" parent="1">
          <mxGeometry width="160" relative="1" as="geometry">
            <mxPoint x="1440" y="1500" as="sourcePoint" />
            <mxPoint x="1520" y="1500" as="targetPoint" />
          </mxGeometry>
        </mxCell>
        <mxCell id="R0AZBqTg8Ke5Ymap6KH1-180" value="" style="endArrow=none;html=1;rounded=0;exitX=0.981;exitY=0.286;exitDx=0;exitDy=0;exitPerimeter=0;entryX=-0.025;entryY=0.73;entryDx=0;entryDy=0;entryPerimeter=0;" edge="1" parent="1">
          <mxGeometry width="50" height="50" relative="1" as="geometry">
            <mxPoint x="1440.96" y="1720.024" as="sourcePoint" />
            <mxPoint x="1520" y="1720.02" as="targetPoint" />
          </mxGeometry>
        </mxCell>
        <mxCell id="R0AZBqTg8Ke5Ymap6KH1-181" value="" style="endArrow=none;html=1;rounded=0;exitX=0.5;exitY=1;exitDx=0;exitDy=0;exitPerimeter=0;entryX=0.5;entryY=0;entryDx=0;entryDy=0;" edge="1" parent="1" source="R0AZBqTg8Ke5Ymap6KH1-145" target="R0AZBqTg8Ke5Ymap6KH1-174">
          <mxGeometry width="50" height="50" relative="1" as="geometry">
            <mxPoint x="1450.96" y="1730.024" as="sourcePoint" />
            <mxPoint x="1530" y="1730.02" as="targetPoint" />
          </mxGeometry>
        </mxCell>
      </root>
    </mxGraphModel>
  </diagram>
</mxfile>
